<svg width="28" height="28" viewBox="0 0 28 28" fill="none" xmlns="http://www.w3.org/2000/svg">
<path d="M26.25 25.5938H23.3809V1.75C23.3809 1.38775 23.0869 1.09375 22.7246 1.09375H5.25C4.88775 1.09375 4.59375 1.38775 4.59375 1.75V25.5938H1.75C1.38775 25.5938 1.09375 25.8878 1.09375 26.25C1.09375 26.6122 1.38775 26.9062 1.75 26.9062H26.25C26.6122 26.9062 26.9062 26.6122 26.9062 26.25C26.9062 25.8878 26.6122 25.5938 26.25 25.5938ZM5.90625 25.5938V2.40625H22.0684V25.5938H5.90625ZM17.92 13.5275C17.7922 13.6456 17.7118 13.8127 17.71 14C17.71 14.0009 17.71 14.0026 17.71 14.0044C17.71 14.1899 17.7914 14.357 17.92 14.4725L17.9209 14.4734C18.0311 14.5915 18.1886 14.6659 18.3628 14.6659C18.3671 14.6659 18.3715 14.6659 18.3759 14.6659C18.5544 14.665 18.7145 14.5915 18.8291 14.4734C18.9534 14.3526 19.0321 14.1864 19.0391 14.0018V14.0009C19.0286 13.8154 18.9499 13.6509 18.8291 13.5284C18.7101 13.4181 18.55 13.3507 18.3741 13.3507C18.1982 13.3507 18.039 13.4181 17.9191 13.5284L17.92 13.5275Z" fill="black"/>
</svg>
