<svg width="28" height="28" viewBox="0 0 28 28" fill="none" xmlns="http://www.w3.org/2000/svg">
<g clip-path="url(#clip0_168_1015)">
<path d="M26.8335 9.33335H22.7501V1.16665H26.8335C27.1543 1.16665 27.4168 0.904148 27.4168 0.583297C27.4168 0.2625 27.1543 0 26.8335 0H22.1668C22.1493 0 22.1318 0.00585156 22.1143 0.0116484C22.0793 0.0175 22.0443 0.0232969 22.0093 0.035C21.951 0.0525 21.8927 0.0816484 21.8402 0.116648H21.8343C21.8052 0.134148 21.776 0.1575 21.7468 0.180797L17.1443 3.63415C17.121 3.6458 17.1035 3.6633 17.0802 3.6808L12.4602 7.1458C12.4486 7.15745 12.4311 7.1633 12.4193 7.1808L7.776 10.6633C7.77014 10.6691 7.7585 10.6749 7.75264 10.6808L3.086 14.175L0.816848 15.8725C0.560199 16.065 0.507699 16.4325 0.700199 16.6891C0.892699 16.9458 1.2602 16.9983 1.51685 16.8058L2.91685 15.7558V23.3333H1.16685C0.845996 23.3333 0.583496 23.5958 0.583496 23.9166V27.4166C0.583496 27.7375 0.845996 28 1.16685 28H26.8335C27.1543 28 27.4168 27.7375 27.4168 27.4166V9.91665C27.4168 9.59585 27.1543 9.33335 26.8335 9.33335ZM18.0835 4.38665L21.5835 1.76165V9.3333H21.0001C20.6793 9.3333 20.4168 9.5958 20.4168 9.91665V12.8333H18.0834V4.38665H18.0835ZM13.4168 7.88665L16.9168 5.26165V12.8333H16.3334C16.0126 12.8333 15.7501 13.0958 15.7501 13.4166V15.75H13.4167L13.4168 7.88665ZM8.75014 11.3809L12.2501 8.75585V15.75H11.0835C10.7626 15.75 10.5001 16.0125 10.5001 16.3334V19.8334H8.75014V11.3809ZM4.0835 14.8809L7.5835 12.2559V19.8334H6.41685C6.096 19.8334 5.8335 20.0959 5.8335 20.4167V23.3334H4.0835V14.8809ZM26.2501 26.8334H1.75014V24.5H6.41679C6.73764 24.5 7.00014 24.2375 7.00014 23.9166V21H11.0835C11.4043 21 11.6668 20.7375 11.6668 20.4166V16.9166H16.3335C16.6543 16.9166 16.9168 16.6541 16.9168 16.3333V14H21.0001C21.321 14 21.5835 13.7375 21.5835 13.4166V10.5H26.2501V26.8334Z" fill="black"/>
</g>
<defs>
<clipPath id="clip0_168_1015">
<rect width="28" height="28" fill="white"/>
</clipPath>
</defs>
</svg>
