<svg width="28" height="28" viewBox="0 0 28 28" fill="none" xmlns="http://www.w3.org/2000/svg">
<path d="M0.961589 17.9625H27.0088V16.8984C27.0088 16.6409 26.9587 16.4016 26.8698 16.1874C26.7741 15.9596 26.6328 15.7568 26.4574 15.5813C26.3503 15.4742 26.2295 15.3762 26.0996 15.2896C25.9674 15.2008 25.8262 15.1233 25.6781 15.0572C25.2793 14.9706 24.8828 14.8886 24.4886 14.8111C24.0921 14.7336 23.6934 14.6607 23.2923 14.5924C23.2741 14.5901 23.2604 14.5878 23.2422 14.5833C23.0394 14.5491 22.8457 14.5172 22.6611 14.4875C22.4766 14.4579 22.2806 14.4283 22.0755 14.3964H22.071C20.6764 14.2187 19.2865 14.0819 17.8988 13.9908C16.5088 13.8997 15.1257 13.8541 13.7516 13.8518C12.9359 13.8518 12.1224 13.8655 11.3089 13.8974C10.5 13.9293 9.68652 13.9749 8.87305 14.0387H8.86849C8.10742 14.1093 7.34863 14.1982 6.58756 14.3007C5.82878 14.4032 5.06771 14.524 4.30208 14.6584L4.21777 14.679C4.20182 14.6835 4.18587 14.6858 4.1722 14.6858C4.15853 14.6881 4.14486 14.6881 4.13118 14.6881C3.77344 14.7519 3.40658 14.8225 3.02832 14.8977C2.66146 14.9706 2.2946 15.0481 1.93001 15.1278C1.83887 15.178 1.75228 15.2349 1.67025 15.2942C1.58822 15.3557 1.50846 15.4218 1.43783 15.4924C1.28516 15.6451 1.16439 15.8206 1.08236 16.0165C1.00488 16.2011 0.961589 16.4062 0.961589 16.6295V17.9625ZM3.23568 2.61353H24.4248C24.7005 2.61353 24.9648 2.66821 25.2064 2.76847C25.457 2.87329 25.6826 3.02596 25.8717 3.21281C26.0609 3.40194 26.2135 3.62752 26.3161 3.87817C26.4163 4.11971 26.471 4.38403 26.471 4.65975V14.3873C26.5872 14.4556 26.7012 14.5308 26.806 14.6129C26.9245 14.704 27.0361 14.7997 27.1387 14.9023C27.403 15.1666 27.6172 15.4742 27.7607 15.8206C27.8975 16.1464 27.9727 16.5087 27.9727 16.9006V18.2883C27.9795 18.3111 27.9863 18.3339 27.9909 18.3567V18.3612C27.9954 18.3909 27.9977 18.4182 27.9977 18.4456C27.9977 18.4752 27.9954 18.5048 27.9886 18.5344C27.984 18.5572 27.9772 18.58 27.9704 18.6028V24.9055C27.9704 25.0377 27.9157 25.1584 27.8291 25.245C27.7425 25.3316 27.6217 25.3863 27.4896 25.3863H26.4984C26.3867 25.3863 26.2842 25.3476 26.2021 25.2838C26.1201 25.22 26.0586 25.1288 26.0335 25.024C25.8512 24.4999 25.6667 24.0852 25.4684 23.7616C25.2725 23.4426 25.0628 23.2148 24.8213 23.053C24.5775 22.8912 24.2858 22.7887 23.9326 22.7271C23.5726 22.6633 23.1533 22.6428 22.6543 22.6451L4.47982 22.6679H4.4707C4.11296 22.6611 3.81901 22.7066 3.57292 22.8023C3.3291 22.898 3.13086 23.0416 2.9668 23.2262C2.78223 23.4312 2.62728 23.6933 2.486 23.9986C2.34245 24.3108 2.21257 24.6663 2.08268 25.0559C2.05078 25.1562 1.98698 25.2359 1.90723 25.2929C1.83203 25.3476 1.74089 25.3795 1.64746 25.384C1.64062 25.3863 1.63379 25.3863 1.62695 25.3863H0.480794C0.348633 25.3863 0.227865 25.3316 0.141276 25.245C0.0546875 25.1584 0 25.0377 0 24.9055V16.6318C0 16.274 0.0683594 15.9459 0.191406 15.6497C0.323568 15.3352 0.517253 15.0549 0.758789 14.8134C0.827148 14.745 0.902344 14.6767 0.982096 14.6129C1.05046 14.5582 1.11882 14.5058 1.19173 14.4579V4.63924C1.19173 4.36353 1.24642 4.10148 1.34668 3.8645C1.4515 3.61613 1.60417 3.39282 1.79329 3.20597C1.98242 3.01912 2.20801 2.87101 2.45638 2.76847C2.69792 2.66821 2.95996 2.61353 3.23568 2.61353ZM24.4248 3.57511H3.23568C3.08756 3.57511 2.94629 3.60474 2.81641 3.65715C2.68197 3.71183 2.56348 3.79159 2.46322 3.88957C2.36523 3.98527 2.28548 4.10376 2.23079 4.23136C2.18066 4.35669 2.15332 4.49341 2.15332 4.63924V13.9954C2.22168 13.9726 2.29004 13.9543 2.36068 13.9361C2.47233 13.9065 2.58398 13.8814 2.69564 13.8632C2.85059 13.8359 3.01921 13.8062 3.2015 13.7743C3.33822 13.7515 3.48405 13.7265 3.63444 13.7037V11.3157C3.63444 10.9556 3.70736 10.6116 3.83724 10.2971C3.97396 9.96899 4.1722 9.67505 4.41829 9.42896C4.66439 9.18286 4.95833 8.98462 5.28646 8.8479C5.60091 8.71802 5.94499 8.6451 6.30501 8.6451H10.8213C11.1813 8.6451 11.5254 8.71802 11.8398 8.8479C12.168 8.98462 12.4619 9.18286 12.708 9.42896C12.9541 9.67505 13.1523 9.96899 13.2891 10.2971C13.4189 10.6116 13.4919 10.9556 13.4919 11.3157V12.8401C13.6514 12.8378 13.8109 12.8378 13.9727 12.8378V11.3157C13.9727 10.9556 14.0456 10.6116 14.1755 10.2971C14.3122 9.96899 14.5104 9.67505 14.7565 9.42896C15.0026 9.18286 15.2965 8.98462 15.6247 8.8479C15.9391 8.71802 16.2832 8.6451 16.6432 8.6451H21.1595C21.5195 8.6451 21.8636 8.71802 22.1781 8.8479C22.5062 8.98462 22.8001 9.18286 23.0462 9.42896C23.2923 9.67505 23.4906 9.96899 23.6273 10.2971C23.7572 10.6116 23.8301 10.9556 23.8301 11.3157V13.6718C24.001 13.6969 24.1833 13.7265 24.3792 13.7584C24.5957 13.7926 24.8031 13.8267 25.0036 13.8609C25.1061 13.8792 25.2109 13.8997 25.3158 13.9247C25.3818 13.9407 25.4456 13.9566 25.5072 13.9749V4.65975C25.5072 4.51392 25.4775 4.37492 25.4251 4.24731C25.3704 4.11515 25.2884 3.99666 25.1882 3.89412C25.0879 3.79386 24.9671 3.71183 24.8372 3.65715C24.7096 3.60474 24.5706 3.57511 24.4248 3.57511ZM9.84603 12.995C10.304 12.9609 10.7643 12.9312 11.2314 12.9084C11.6621 12.8857 12.0973 12.8697 12.5326 12.8583V11.3157C12.5326 11.0855 12.487 10.8645 12.4027 10.664C12.3161 10.4543 12.1885 10.2675 12.029 10.108C11.8717 9.95076 11.6826 9.82316 11.473 9.73429C11.2725 9.64998 11.0514 9.60441 10.8213 9.60441H6.30501C6.07487 9.60441 5.85384 9.64998 5.65332 9.73429C5.44368 9.82088 5.25684 9.94849 5.09733 10.108C4.9401 10.2652 4.8125 10.4543 4.72363 10.664C4.63932 10.8645 4.59375 11.0855 4.59375 11.3157V13.551C4.96289 13.4963 5.33659 13.4462 5.7194 13.3961C6.13184 13.3437 6.54199 13.2958 6.94759 13.2502C7.10482 13.232 7.27344 13.2115 7.44889 13.1933C7.61296 13.175 7.78385 13.1591 7.96615 13.1409C8.27604 13.1112 8.58366 13.0839 8.88672 13.0588C9.19889 13.0383 9.5179 13.0155 9.84603 12.995ZM14.9342 12.8446C15.21 12.8492 15.4857 12.856 15.7614 12.8652C16.0667 12.8743 16.3721 12.8879 16.6751 12.9016H16.6774C17.1764 12.9198 17.6641 12.9426 18.138 12.97C18.612 12.9973 19.0745 13.0315 19.5166 13.0702C20.1592 13.1272 20.7812 13.1956 21.3714 13.2753C21.9001 13.3482 22.4014 13.4303 22.8708 13.5214V11.3157C22.8708 11.0855 22.8252 10.8645 22.7409 10.664C22.6543 10.4543 22.5267 10.2675 22.3672 10.108C22.21 9.95076 22.0208 9.82316 21.8112 9.73429C21.6107 9.64998 21.3896 9.60441 21.1595 9.60441H16.6455C16.4154 9.60441 16.1943 9.64998 15.9938 9.73429C15.7842 9.82088 15.5973 9.94849 15.4378 10.108C15.2806 10.2652 15.153 10.4543 15.0641 10.664C14.9798 10.8645 14.9342 11.0855 14.9342 11.3157V12.8446ZM27.0111 18.9263H0.961589V24.4247H1.28743C1.41504 24.0647 1.5472 23.7297 1.69531 23.4312C1.85482 23.1122 2.03483 22.8297 2.25358 22.5859C2.51335 22.2942 2.81868 22.0686 3.18555 21.9182C3.55241 21.7701 3.98079 21.6949 4.49577 21.7063L22.6543 21.6835C23.2399 21.6835 23.7412 21.7109 24.1787 21.7952C24.623 21.8795 25.0059 22.023 25.3499 22.2509C25.6689 22.4628 25.9424 22.7431 26.1885 23.1099C26.4232 23.4609 26.6328 23.8915 26.8333 24.4224H27.0065V18.9263H27.0111Z" fill="black"/>
</svg>
