<svg width="28" height="28" viewBox="0 0 28 28" fill="none" xmlns="http://www.w3.org/2000/svg">
<path d="M3.81496 3.91992C3.54808 3.97023 3.35558 4.20648 3.35996 4.47992C3.35996 10.7252 6.37433 19.4009 7.05246 21.2799H1.67996C1.66246 21.2799 1.64496 21.2799 1.62746 21.2799C1.40652 21.2952 1.21402 21.4396 1.13965 21.6474C1.06308 21.8552 1.11777 22.0893 1.27746 22.2424L2.55496 23.5024C3.63777 24.5852 5.11652 25.1999 6.64996 25.1999H18.55C20.0834 25.1999 21.5621 24.5852 22.645 23.5024L23.9225 22.2424C24.0887 22.0827 24.139 21.8355 24.0493 21.6234C23.9618 21.4112 23.7496 21.2755 23.52 21.2799H18.1475C18.3421 20.733 18.6178 19.9521 19.0925 18.4274C19.4709 18.3552 21.0875 18.0205 22.8025 17.2549C23.7759 16.8196 24.7756 16.264 25.55 15.5049C26.3243 14.7459 26.88 13.7549 26.88 12.5824C26.88 10.5896 25.2503 8.95992 23.2575 8.95992C22.5684 8.95992 21.9012 9.15242 21.3325 9.48492C21.6387 7.7393 21.84 6.01773 21.84 4.47992C21.84 4.17148 21.5884 3.91992 21.28 3.91992H3.91996C3.90246 3.91992 3.88496 3.91992 3.86746 3.91992C3.84996 3.91992 3.83246 3.91992 3.81496 3.91992ZM4.54996 5.03992H20.65C20.5581 8.20523 19.7006 12.2193 18.7775 15.5224C17.8631 18.7949 17.0646 20.9868 16.9575 21.2799H8.24246C8.02808 20.6893 4.73371 11.4252 4.54996 5.03992ZM23.2575 10.0799C24.6465 10.0799 25.76 11.1934 25.76 12.5824C25.76 13.4049 25.3903 14.083 24.7625 14.6999C24.1346 15.3168 23.2443 15.8396 22.3475 16.2399C21.2209 16.743 20.1468 17.0515 19.46 17.2199C19.5978 16.7562 19.7225 16.323 19.8625 15.8199C20.2431 14.4615 20.6237 12.9696 20.9475 11.4624C20.9496 11.4493 20.9628 11.4405 20.965 11.4274C21.374 10.6487 22.2884 10.0799 23.2575 10.0799ZM3.02746 22.3999H22.1725L21.8575 22.7149C20.9846 23.5877 19.7859 24.0799 18.55 24.0799H6.64996C5.41402 24.0799 4.21527 23.5877 3.34246 22.7149L3.02746 22.3999Z" fill="black"/>
</svg>
