<svg width="28" height="28" viewBox="0 0 28 28" fill="none" xmlns="http://www.w3.org/2000/svg">
<path d="M22.1312 19.383C22.0629 19.2938 21.9928 19.2019 21.9373 19.1089C21.8967 19.0407 21.8266 19 21.75 19C21.6734 19 21.6033 19.0407 21.5627 19.1089C21.5073 19.2019 21.4371 19.2938 21.3693 19.3826C21.196 19.6093 21 19.8657 21 20.2134C21 20.6471 21.3364 21 21.75 21C22.1636 21 22.5 20.6471 22.5 20.2134C22.5 19.8656 22.3041 19.6093 22.1312 19.383ZM21.75 20.6219C21.5352 20.6219 21.3605 20.4386 21.3605 20.2134C21.3605 19.9985 21.4946 19.8228 21.6501 19.6195C21.6833 19.5761 21.717 19.5321 21.75 19.4866C21.783 19.5319 21.8167 19.5761 21.8499 19.6195C22.0053 19.8229 22.1395 19.9985 22.1395 20.2134C22.1395 20.4386 21.9648 20.6219 21.75 20.6219Z" fill="black"/>
<path d="M21.1312 21.383C21.0629 21.2938 20.9928 21.2019 20.9373 21.1089C20.8967 21.0407 20.8266 21 20.75 21C20.6734 21 20.6033 21.0407 20.5627 21.1089C20.5073 21.2019 20.4371 21.2938 20.3693 21.3826C20.196 21.6093 20 21.8657 20 22.2134C20 22.6471 20.3364 23 20.75 23C21.1636 23 21.5 22.6471 21.5 22.2134C21.5 21.8656 21.3041 21.6093 21.1312 21.383ZM20.75 22.6219C20.5352 22.6219 20.3605 22.4386 20.3605 22.2134C20.3605 21.9985 20.4946 21.8228 20.6501 21.6195C20.6833 21.5761 20.717 21.5321 20.75 21.4866C20.783 21.5319 20.8167 21.5761 20.8499 21.6195C21.0053 21.8229 21.1395 21.9985 21.1395 22.2134C21.1395 22.4386 20.9648 22.6219 20.75 22.6219Z" fill="black"/>
<path d="M23.1312 21.383C23.0629 21.2938 22.9928 21.2019 22.9373 21.1089C22.8967 21.0407 22.8266 21 22.75 21C22.6734 21 22.6033 21.0407 22.5627 21.1089C22.5073 21.2019 22.4371 21.2938 22.3693 21.3826C22.196 21.6093 22 21.8657 22 22.2134C22 22.6471 22.3364 23 22.75 23C23.1636 23 23.5 22.6471 23.5 22.2134C23.5 21.8656 23.3041 21.6093 23.1312 21.383ZM22.75 22.6219C22.5352 22.6219 22.3605 22.4386 22.3605 22.2134C22.3605 21.9985 22.4946 21.8228 22.6501 21.6195C22.6833 21.5761 22.717 21.5321 22.75 21.4866C22.783 21.5319 22.8167 21.5761 22.8499 21.6195C23.0053 21.8229 23.1395 21.9985 23.1395 22.2134C23.1395 22.4386 22.9648 22.6219 22.75 22.6219Z" fill="black"/>
<path d="M15.995 8.4H13.195V4.9H14.8624C15.3548 5.33028 15.9909 5.6 16.695 5.6C18.2387 5.6 19.495 4.34372 19.495 2.8C19.495 1.25628 18.2387 0 16.695 0C15.9913 0 15.3552 0.269719 14.8624 0.7H10.1272C9.63481 0.269719 8.99874 0 8.29502 0C6.7513 0 5.49502 1.25628 5.49502 2.8C5.49502 4.34372 6.7513 5.6 8.29502 5.6C8.99874 5.6 9.63481 5.33028 10.1276 4.9H11.795V8.4H4.79502V7.7C4.79502 7.31314 4.48188 7 4.09502 7C3.70816 7 3.39502 7.31314 3.39502 7.7V14.7C3.39502 15.0869 3.70816 15.4 4.09502 15.4C4.48188 15.4 4.79502 15.0869 4.79502 14.7V14H15.995C17.5387 14 18.795 15.2563 18.795 16.8V17.5C18.795 18.2733 19.4217 18.9 20.195 18.9H22.995C23.7683 18.9 24.395 18.2733 24.395 17.5V16.8C24.395 12.1684 20.6267 8.4 15.995 8.4ZM16.695 1.4C17.4683 1.4 18.095 2.02672 18.095 2.8C18.095 3.57328 17.4683 4.2 16.695 4.2C15.9217 4.2 15.295 3.57328 15.295 2.8C15.295 2.02672 15.9217 1.4 16.695 1.4ZM8.29502 4.2C7.52174 4.2 6.89502 3.57328 6.89502 2.8C6.89502 2.02672 7.52174 1.4 8.29502 1.4C9.0683 1.4 9.69502 2.02672 9.69502 2.8C9.69502 3.57328 9.0683 4.2 8.29502 4.2ZM11.095 3.5V2.1H13.895V3.5H11.095ZM22.995 17.5H20.195V16.8C20.195 14.4839 18.3106 12.6 15.995 12.6H4.79502V9.8H15.995C19.8548 9.8 22.995 12.9402 22.995 16.8V17.5Z" fill="black"/>
</svg>
