<svg width="12" height="12" viewBox="0 0 12 12" fill="none" xmlns="http://www.w3.org/2000/svg">
<path d="M0.72 2.16016C0.325091 2.16016 0 2.48525 0 2.88016V10.0802H1.44V8.88016H10.56V10.0802H12V6.72016V5.52016C12 4.86125 11.4589 4.32016 10.8 4.32016H4.56C4.49635 4.32016 4.43531 4.34545 4.3903 4.39046C4.34529 4.43547 4.32001 4.49651 4.32 4.56016V6.72016H2.88H1.44V2.88016C1.44 2.48525 1.11491 2.16016 0.72 2.16016ZM2.88 6.72016C3.5399 6.72016 4.08 6.18006 4.08 5.52016C4.08 4.86026 3.5399 4.32016 2.88 4.32016C2.2201 4.32016 1.68 4.86026 1.68 5.52016C1.68 6.18006 2.2201 6.72016 2.88 6.72016ZM0.72 2.64016C0.853091 2.64016 0.96 2.74707 0.96 2.88016V7.20016H1.2H11.52V9.60016H11.04V8.40016H0.96V9.60016H0.48V2.88016C0.48 2.74707 0.586909 2.64016 0.72 2.64016ZM2.88 4.80016C3.28049 4.80016 3.6 5.11967 3.6 5.52016C3.6 5.92064 3.28049 6.24016 2.88 6.24016C2.47951 6.24016 2.16 5.92064 2.16 5.52016C2.16 5.11967 2.47951 4.80016 2.88 4.80016ZM4.8 4.80016H10.8C11.1971 4.80016 11.52 5.12307 11.52 5.52016V6.72016H4.8V4.80016Z" fill="black"/>
</svg>
