<svg width="14" height="14" viewBox="0 0 14 14" fill="none" xmlns="http://www.w3.org/2000/svg">
<path d="M2.625 6.125C2.625 8.53125 4.59375 10.5 7 10.5C9.40625 10.5 11.375 8.53125 11.375 6.125H2.625Z" stroke="black" stroke-width="0.5" stroke-miterlimit="10" stroke-linecap="round" stroke-linejoin="round"/>
<path d="M1.75 6.125H12.25" stroke="black" stroke-width="1.2" stroke-miterlimit="10" stroke-linecap="round" stroke-linejoin="round"/>
<path d="M8.75 9.1875L10.9375 13.5625" stroke="black" stroke-width="0.5" stroke-miterlimit="10" stroke-linecap="round" stroke-linejoin="round"/>
<path d="M3.0625 13.5625L5.25 9.1875" stroke="black" stroke-width="0.5" stroke-miterlimit="10" stroke-linecap="round" stroke-linejoin="round"/>
<path d="M3.9375 4.8125H6.125" stroke="black" stroke-width="0.5" stroke-miterlimit="10" stroke-linecap="round" stroke-linejoin="round"/>
<path d="M7.875 4.8125H10.0625" stroke="black" stroke-width="0.5" stroke-miterlimit="10" stroke-linecap="round" stroke-linejoin="round"/>
<path d="M5.25 0.4375L5.5125 0.7C5.8625 1.05 5.8625 1.575 5.5125 1.925C5.3375 2.1 5.25 2.31875 5.25 2.5375V3.0625" stroke="black" stroke-width="0.5" stroke-miterlimit="10" stroke-linecap="round" stroke-linejoin="round"/>
<path d="M7 0.4375L7.2625 0.7C7.6125 1.05 7.6125 1.575 7.2625 1.925C7.0875 2.1 7 2.31875 7 2.5375V3.0625" stroke="black" stroke-width="0.5" stroke-miterlimit="10" stroke-linecap="round" stroke-linejoin="round"/>
<path d="M8.75 0.4375L9.0125 0.7C9.3625 1.05 9.3625 1.575 9.0125 1.925C8.8375 2.1 8.75 2.31875 8.75 2.5375V3.0625" stroke="black" stroke-width="0.5" stroke-miterlimit="10" stroke-linecap="round" stroke-linejoin="round"/>
</svg>
