<svg width="11" height="11" viewBox="0 0 11 11" fill="none" xmlns="http://www.w3.org/2000/svg">
<g clip-path="url(#clip0_184_2049)">
<path d="M9.88262 0.847193C9.32867 0.30366 8.58426 0 7.80979 0C7.79101 0 7.77241 0.000150391 7.75363 0.000580078L7.74074 0.000880859L2.26141 0.60543L0.232422 0.255148V5.94795L2.26083 5.60867L5.24696 5.933V9.59888C5.24696 9.79155 5.28611 9.97657 5.35722 10.1443C5.46365 10.3962 5.64092 10.6094 5.86453 10.7604C6.08769 10.9115 6.35878 11 6.64809 11C6.84076 11 7.02578 10.9607 7.19353 10.8898C7.44528 10.7832 7.65863 10.6059 7.80964 10.3825C7.96067 10.1591 8.04921 9.88805 8.04921 9.5989V6.19427C8.7363 6.13856 9.38612 5.84502 9.8826 5.35777C10.4497 4.80105 10.7694 4.03992 10.7694 3.24521V2.95973C10.7694 2.16507 10.4497 1.40377 9.88262 0.847193ZM2.04499 5.07053L0.798986 5.27873V0.927824L2.04499 1.14308V5.07053ZM7.48269 9.59888C7.48269 9.71485 7.45923 9.82395 7.41729 9.92365C7.35408 10.0731 7.24778 10.2011 7.11451 10.2911C6.98092 10.3811 6.82183 10.4335 6.64809 10.4335C6.53196 10.4335 6.42287 10.4101 6.32316 10.3681C6.1739 10.3049 6.04575 10.1986 5.95573 10.0653C5.86571 9.93171 5.8135 9.77277 5.81335 9.59888V5.99457L7.48267 6.17609V9.59888H7.48269ZM8.31418 5.58387C8.14952 5.6195 7.98061 5.63827 7.80979 5.63827C7.79879 5.63827 7.78736 5.63827 7.77606 5.63797L2.61154 5.07699V1.13676L7.77651 0.566844C7.78766 0.566543 7.79881 0.566543 7.80979 0.566543C7.98061 0.566543 8.14952 0.58532 8.31418 0.620941V5.58387ZM10.2028 3.24521C10.2028 3.88788 9.9445 4.5034 9.48585 4.95337C9.30624 5.12948 9.10154 5.27405 8.88059 5.38461V0.820209C9.10156 0.930768 9.30624 1.07519 9.48585 1.25157C9.9445 1.70154 10.2028 2.31709 10.2028 2.95973V3.24521Z" fill="black"/>
<path d="M4.36719 6.56425V7.34489C4.36719 7.48387 4.47994 7.59647 4.61894 7.59647H5.12245V6.3125H4.61894C4.47996 6.3125 4.36719 6.42527 4.36719 6.56425Z" fill="black"/>
</g>
<defs>
<clipPath id="clip0_184_2049">
<rect width="11" height="11" fill="white"/>
</clipPath>
</defs>
</svg>
