<svg width="13" height="13" viewBox="0 0 13 13" fill="none" xmlns="http://www.w3.org/2000/svg">
<path d="M2.34055 0.779785C1.91285 0.779785 1.56055 1.13209 1.56055 1.55979V11.4398C1.56055 11.8675 1.91285 12.2198 2.34055 12.2198H10.6605C11.0882 12.2198 11.4405 11.8675 11.4405 11.4398V1.55979C11.4405 1.13209 11.0882 0.779785 10.6605 0.779785H2.34055ZM2.34055 1.29979H10.6605C10.8075 1.29979 10.9205 1.41288 10.9205 1.55979V11.4398C10.9205 11.5867 10.8075 11.6998 10.6605 11.6998H2.34055C2.19364 11.6998 2.08055 11.5867 2.08055 11.4398V1.55979C2.08055 1.41288 2.19364 1.29979 2.34055 1.29979ZM8.06055 2.07979C7.92263 2.07979 7.79037 2.13457 7.69285 2.23209C7.59533 2.32961 7.54055 2.46187 7.54055 2.59979C7.54055 2.7377 7.59533 2.86996 7.69285 2.96748C7.79037 3.065 7.92263 3.11979 8.06055 3.11979C8.19846 3.11979 8.33072 3.065 8.42824 2.96748C8.52576 2.86996 8.58055 2.7377 8.58055 2.59979C8.58055 2.46187 8.52576 2.32961 8.42824 2.23209C8.33072 2.13457 8.19846 2.07979 8.06055 2.07979ZM9.62055 2.07979C9.48264 2.07979 9.35037 2.13457 9.25285 2.23209C9.15533 2.32961 9.10055 2.46187 9.10055 2.59979C9.10055 2.7377 9.15533 2.86996 9.25285 2.96748C9.35037 3.065 9.48264 3.11979 9.62055 3.11979C9.75846 3.11979 9.89072 3.065 9.98824 2.96748C10.0858 2.86996 10.1405 2.7377 10.1405 2.59979C10.1405 2.46187 10.0858 2.32961 9.98824 2.23209C9.89072 2.13457 9.75846 2.07979 9.62055 2.07979ZM6.50055 3.89979C4.78053 3.89979 3.38055 5.29976 3.38055 7.01978C3.38055 8.73981 4.78053 10.1398 6.50055 10.1398C8.22009 10.1398 9.62055 8.73986 9.62055 7.01978C9.62055 5.33247 8.26745 3.97051 6.59297 3.91857C6.56356 3.90673 6.53224 3.90036 6.50055 3.89979ZM6.50055 4.41979C7.93896 4.41979 9.10055 5.58086 9.10055 7.01978C9.10055 8.45871 7.93896 9.61979 6.50055 9.61979C5.06157 9.61979 3.90055 8.45876 3.90055 7.01978C3.90055 5.58081 5.06157 4.41979 6.50055 4.41979ZM5.45648 5.71623C5.38762 5.71731 5.32199 5.74566 5.27401 5.79507C5.22602 5.84449 5.1996 5.91092 5.20055 5.97978C5.20055 6.58415 5.11118 6.68492 4.98168 6.88674C4.85219 7.08856 4.68055 7.39404 4.68055 8.05978C4.68006 8.09424 4.68643 8.12844 4.69927 8.16042C4.71212 8.19239 4.73119 8.22149 4.75539 8.24602C4.77958 8.27056 4.8084 8.29004 4.84019 8.30334C4.87198 8.31664 4.90609 8.32349 4.94055 8.32349C4.975 8.32349 5.00912 8.31664 5.0409 8.30334C5.07269 8.29004 5.10152 8.27056 5.12571 8.24602C5.1499 8.22149 5.16897 8.19239 5.18182 8.16042C5.19467 8.12844 5.20103 8.09424 5.20055 8.05978C5.20055 7.46557 5.28891 7.37095 5.41941 7.16756C5.54992 6.96417 5.72055 6.65462 5.72055 5.97978C5.72102 5.945 5.71452 5.91047 5.70141 5.87825C5.6883 5.84602 5.66886 5.81676 5.64423 5.79218C5.61961 5.76761 5.59031 5.74822 5.55806 5.73518C5.52581 5.72213 5.49127 5.71569 5.45648 5.71623ZM6.75648 5.71623C6.68762 5.71731 6.62199 5.74566 6.57401 5.79507C6.52602 5.84449 6.4996 5.91092 6.50055 5.97978C6.50055 6.58415 6.41118 6.68492 6.28168 6.88674C6.15219 7.08856 5.98055 7.39404 5.98055 8.05978C5.98006 8.09424 5.98643 8.12844 5.99927 8.16042C6.01212 8.19239 6.03119 8.22149 6.05539 8.24602C6.07958 8.27056 6.1084 8.29004 6.14019 8.30334C6.17198 8.31664 6.20609 8.32349 6.24055 8.32349C6.275 8.32349 6.30912 8.31664 6.3409 8.30334C6.37269 8.29004 6.40152 8.27056 6.42571 8.24602C6.4499 8.22149 6.46897 8.19239 6.48182 8.16042C6.49467 8.12844 6.50103 8.09424 6.50055 8.05978C6.50055 7.46557 6.58891 7.37095 6.71941 7.16756C6.84992 6.96417 7.02055 6.65462 7.02055 5.97978C7.02102 5.945 7.01452 5.91047 7.00141 5.87825C6.9883 5.84602 6.96886 5.81676 6.94423 5.79218C6.91961 5.76761 6.89031 5.74822 6.85806 5.73518C6.82581 5.72213 6.79127 5.71569 6.75648 5.71623ZM8.05648 5.71623C7.98762 5.71731 7.92199 5.74566 7.87401 5.79507C7.82602 5.84449 7.7996 5.91092 7.80055 5.97978C7.80055 6.58415 7.71118 6.68492 7.58168 6.88674C7.45219 7.08856 7.28055 7.39404 7.28055 8.05978C7.28006 8.09424 7.28643 8.12844 7.29927 8.16042C7.31212 8.19239 7.33119 8.22149 7.35539 8.24602C7.37958 8.27056 7.4084 8.29004 7.44019 8.30334C7.47198 8.31664 7.50609 8.32349 7.54055 8.32349C7.575 8.32349 7.60912 8.31664 7.6409 8.30334C7.67269 8.29004 7.70152 8.27056 7.72571 8.24602C7.7499 8.22149 7.76897 8.19239 7.78182 8.16042C7.79467 8.12844 7.80103 8.09424 7.80055 8.05978C7.80055 7.46557 7.88891 7.37095 8.01941 7.16756C8.14992 6.96417 8.32055 6.65462 8.32055 5.97978C8.32102 5.945 8.31452 5.91047 8.30141 5.87825C8.2883 5.84602 8.26886 5.81676 8.24423 5.79218C8.21961 5.76761 8.19031 5.74822 8.15806 5.73518C8.12581 5.72213 8.09127 5.71569 8.05648 5.71623Z" fill="black"/>
</svg>
