<svg width="28" height="28" viewBox="0 0 28 28" fill="none" xmlns="http://www.w3.org/2000/svg">
<path d="M1.68 5.04004C0.758545 5.04004 0 5.79858 0 6.72004V23.52H3.36V20.72H24.64V23.52H28V15.68V12.88C28 11.3426 26.7375 10.08 25.2 10.08H10.64C10.4915 10.0801 10.3491 10.1391 10.244 10.2441C10.139 10.3491 10.08 10.4915 10.08 10.64V15.68H6.72H3.36V6.72004C3.36 5.79858 2.60145 5.04004 1.68 5.04004ZM6.72 15.68C8.25976 15.68 9.52 14.4198 9.52 12.88C9.52 11.3403 8.25976 10.08 6.72 10.08C5.18024 10.08 3.92 11.3403 3.92 12.88C3.92 14.4198 5.18024 15.68 6.72 15.68ZM1.68 6.16004C1.99055 6.16004 2.24 6.40949 2.24 6.72004V16.8H2.8H26.88V22.4H25.76V19.6H2.24V22.4H1.12V6.72004C1.12 6.40949 1.36945 6.16004 1.68 6.16004ZM6.72 11.2C7.65447 11.2 8.4 11.9456 8.4 12.88C8.4 13.8145 7.65447 14.56 6.72 14.56C5.78553 14.56 5.04 13.8145 5.04 12.88C5.04 11.9456 5.78553 11.2 6.72 11.2ZM11.2 11.2H25.2C26.1265 11.2 26.88 11.9535 26.88 12.88V15.68H11.2V11.2Z" fill="black"/>
</svg>
