<svg width="13" height="12" viewBox="0 0 13 12" fill="none" xmlns="http://www.w3.org/2000/svg">
<g clip-path="url(#clip0_184_2064)">
<path d="M9.86507 1.33105C10.0714 1.33105 10.2385 1.48535 10.2385 1.67578C10.2385 1.86621 10.0714 2.02051 9.86507 2.02051C9.65877 2.02051 9.49162 1.86621 9.49162 1.67578C9.49162 1.48535 9.65877 1.33105 9.86507 1.33105ZM8.18083 8.80078C8.27604 8.60156 8.33317 8.33008 8.33105 8.03125C8.32788 7.41992 8.07715 6.9248 7.77246 6.92578C7.46777 6.92676 7.22233 7.42383 7.22656 8.03516C7.22868 8.33398 7.28898 8.60547 7.38631 8.80469C7.65291 9.25488 7.9174 9.20703 8.18083 8.80078ZM4.44417 10.0586C4.44946 10.0693 4.45475 10.0801 4.45793 10.0918H5.22811C5.13501 9.87305 5.05884 9.62793 5.00171 9.36426C4.93083 9.03516 4.89168 8.67383 4.88957 8.2959V8.28711C4.88639 7.51855 5.04085 6.81934 5.29264 6.30957C5.34237 6.20996 5.39526 6.11719 5.45239 6.03125C5.41007 5.99805 5.3667 5.9707 5.32227 5.9502C5.26196 5.92188 5.2006 5.90527 5.1403 5.90332L5.12443 5.9043V5.90332H5.12337C4.86312 5.9043 4.61344 6.14746 4.41984 6.53809C4.20085 6.98242 4.06649 7.60059 4.06966 8.28613V8.29297C4.07178 8.63672 4.10775 8.96387 4.17122 9.26074C4.23576 9.5625 4.32992 9.83398 4.44417 10.0586ZM3.90674 10.0918C3.8147 9.875 3.73853 9.63086 3.6814 9.36719C3.61051 9.03711 3.57031 8.67578 3.5682 8.2959V8.28711C3.56502 7.51855 3.71948 6.81934 3.97127 6.30957C4.24845 5.74707 4.65259 5.39746 5.11702 5.39551V5.39453H5.11808C5.1276 5.39453 5.13713 5.39453 5.14559 5.39551C5.27995 5.39844 5.40902 5.43066 5.53068 5.48828C5.61849 5.5293 5.70312 5.58398 5.78459 5.65137C5.98136 5.48828 6.20142 5.39648 6.4384 5.39551V5.39453H6.43945C6.44897 5.39453 6.4585 5.39453 6.46696 5.39551C6.60238 5.39941 6.73356 5.43164 6.85734 5.49121C6.94409 5.53223 7.02661 5.58594 7.10596 5.65137C7.30273 5.48828 7.52279 5.39648 7.75977 5.39551V5.39453H7.76082C7.77034 5.39453 7.77987 5.39453 7.78939 5.39551C8.24536 5.40723 8.64421 5.75195 8.92244 6.30469C9.17952 6.81445 9.34139 7.51465 9.34562 8.28418C9.34774 8.65332 9.31388 9.00488 9.25146 9.32422C9.19645 9.60449 9.11922 9.86328 9.02401 10.0928H9.86613C9.91691 10.0928 9.96452 10.0732 9.99837 10.042C10.0322 10.0107 10.0534 9.96777 10.0534 9.91992V4.78906C10.0534 4.74219 10.0322 4.69922 9.99837 4.66797C9.96452 4.63672 9.91797 4.61719 9.86719 4.61719H3.16829C3.11751 4.61719 3.07096 4.63672 3.03711 4.66797C3.00326 4.69922 2.9821 4.74219 2.9821 4.78906V9.91895C2.9821 9.96582 3.00326 10.0088 3.03711 10.04C3.07096 10.0713 3.11751 10.0908 3.16829 10.0908H3.90674V10.0918ZM5.76343 10.0547C5.76977 10.0664 5.77506 10.0791 5.7793 10.0918H6.55054C6.45321 9.86523 6.37492 9.60938 6.31779 9.33496C6.25114 9.01562 6.21411 8.66504 6.212 8.2959V8.28711C6.20882 7.51855 6.36328 6.81934 6.61507 6.30957C6.66374 6.20996 6.71769 6.11719 6.77482 6.03125C6.7325 5.99805 6.69019 5.97168 6.64681 5.95117C6.58545 5.92188 6.52409 5.90527 6.46273 5.90332L6.44686 5.9043V5.90332H6.4458C6.18555 5.9043 5.93587 6.14746 5.74227 6.53809C5.52327 6.98242 5.38892 7.60059 5.39209 8.28613V8.29297C5.39421 8.63574 5.43018 8.96191 5.49365 9.25781C5.55607 9.56055 5.65023 9.83105 5.76343 10.0547ZM7.06681 10.0166C7.07845 10.041 7.08586 10.0664 7.09009 10.0918H8.48763C8.4908 10.0645 8.49821 10.0371 8.5109 10.0107C8.6167 9.78711 8.70239 9.52051 8.76058 9.22363C8.81771 8.93262 8.84839 8.61621 8.84627 8.28711C8.84204 7.59863 8.70133 6.97852 8.47705 6.53418C8.28345 6.15137 8.038 5.91211 7.78304 5.90332L7.76717 5.9043V5.90332H7.76611C7.50586 5.9043 7.25618 6.14746 7.06258 6.53809C6.84359 6.98242 6.70923 7.60059 6.7124 8.28613V8.29297C6.71452 8.62402 6.74837 8.94141 6.80867 9.23242C6.87004 9.5293 6.9589 9.79492 7.06681 10.0166ZM3.16829 4.13965H9.86719C10.0608 4.13965 10.2364 4.21289 10.3634 4.33008C10.4903 4.44727 10.5697 4.61035 10.5697 4.78906V9.91895C10.5697 10.0967 10.4903 10.2588 10.3634 10.376L10.3623 10.3779C10.2354 10.4951 10.0597 10.5684 9.86719 10.5684H3.16829C2.97469 10.5684 2.79907 10.4951 2.67106 10.3779C2.54411 10.2607 2.46476 10.0986 2.46476 9.91992V4.78906C2.46476 4.61035 2.54411 4.44824 2.67106 4.33008C2.79801 4.21289 2.97469 4.13965 3.16829 4.13965ZM2.8964 1.33105C3.1027 1.33105 3.26986 1.48535 3.26986 1.67578C3.26986 1.86621 3.1027 2.02051 2.8964 2.02051C2.6901 2.02051 2.52295 1.86621 2.52295 1.67578C2.52295 1.48535 2.6901 1.33105 2.8964 1.33105ZM4.51294 1.2959H8.52148V2.05566H4.51294V1.2959ZM1.64909 2.89746H11.3504V0.619141C11.3504 0.573242 11.3303 0.532227 11.2975 0.501953C11.2647 0.47168 11.2203 0.453125 11.1706 0.453125H1.82894C1.77922 0.453125 1.73478 0.47168 1.70199 0.501953C1.66919 0.532227 1.64909 0.573242 1.64909 0.619141V2.89746ZM11.8403 11.3809C11.8403 11.5508 11.7651 11.7061 11.6435 11.8184C11.5218 11.9307 11.3536 12 11.1695 12H1.82894C1.64486 12 1.47664 11.9307 1.35498 11.8184C1.23332 11.7051 1.1582 11.5508 1.1582 11.3799V0.619141C1.1582 0.449219 1.23332 0.293945 1.35498 0.181641C1.47664 0.0693359 1.6438 0 1.82894 0H11.1706C11.3547 0 11.5229 0.0693359 11.6445 0.181641C11.7662 0.293945 11.8413 0.449219 11.8413 0.619141C11.8403 4.38184 11.8403 7.60645 11.8403 11.3809ZM11.3504 3.35059H1.64909V11.3799C1.64909 11.4258 1.66919 11.4668 1.70199 11.4971C1.73478 11.5273 1.77922 11.5459 1.82894 11.5459H11.1706C11.2203 11.5459 11.2647 11.5273 11.2975 11.4971C11.3303 11.4668 11.3504 11.4258 11.3504 11.3799V3.35059Z" fill="black"/>
</g>
<defs>
<clipPath id="clip0_184_2064">
<rect width="13" height="12" fill="white"/>
</clipPath>
</defs>
</svg>
