<svg width="11" height="11" viewBox="0 0 11 11" fill="none" xmlns="http://www.w3.org/2000/svg">
<g clip-path="url(#clip0_184_2059)">
<path d="M2.29704 2.22835C2.26123 2.26415 2.21379 2.28206 2.16724 2.28206C2.11979 2.28206 2.07324 2.26415 2.03743 2.22835C2.00163 2.19254 1.98372 2.1451 1.98372 2.09855C1.98372 2.0511 2.00163 2.00455 2.03743 1.96874C2.10278 1.9034 2.12158 1.84431 2.11442 1.78792C2.10726 1.72615 2.07235 1.65991 2.03385 1.58919C1.96761 1.46476 1.896 1.33227 1.87362 1.17114C1.85034 1.00821 1.8772 0.821121 2.00879 0.593744L2.00968 0.590164C2.03475 0.54809 2.07503 0.519444 2.1189 0.506912C2.16366 0.494379 2.21379 0.49975 2.25765 0.524815C2.30151 0.54988 2.33105 0.591059 2.34359 0.635818C2.35612 0.680577 2.35075 0.730707 2.32568 0.774571C2.24512 0.915115 2.2299 1.03149 2.24512 1.13354C2.26123 1.23649 2.31047 1.32869 2.35701 1.41463C2.42594 1.54264 2.4895 1.6617 2.49756 1.79329C2.50651 1.92846 2.45728 2.06811 2.29704 2.22835ZM1.26131 4.32844H9.72168C9.7557 4.32844 9.78882 4.33561 9.81925 4.34814C9.8488 4.36067 9.87476 4.37768 9.89803 4.39916C9.89982 4.40006 9.90161 4.40185 9.9034 4.40364C9.94995 4.45019 9.9786 4.51375 9.9786 4.58447V5.1547H10.8165C10.8675 5.1547 10.9132 5.17529 10.9463 5.20841C10.9794 5.24153 11 5.28808 11 5.33821C11 5.38924 10.9794 5.43489 10.9463 5.46801L10.9436 5.4707C10.9105 5.50203 10.8657 5.52172 10.8165 5.52172H9.9786V9.29044C9.9786 9.45336 9.94548 9.60913 9.88639 9.75146C9.82463 9.89916 9.73511 10.0325 9.6241 10.1435C9.5131 10.2546 9.37972 10.345 9.23201 10.4058C9.08968 10.4649 8.93392 10.498 8.771 10.498H2.21379C2.05086 10.498 1.8951 10.4649 1.75277 10.4058C1.60506 10.3441 1.47168 10.2546 1.36068 10.1427C1.24967 10.0317 1.15926 9.89827 1.09749 9.75056C1.03841 9.60823 1.00529 9.45247 1.00529 9.28955V5.52351H0.184408C0.133382 5.52351 0.0877279 5.50292 0.0546061 5.4698C0.0205892 5.43579 0 5.39013 0 5.33911C0 5.28808 0.0205892 5.24243 0.0537109 5.2093C0.0868327 5.17618 0.133382 5.15559 0.183512 5.15559H1.00529V4.58536C1.00529 4.55135 1.01245 4.51822 1.02498 4.48779C1.03841 4.45646 1.05721 4.42781 1.08048 4.40454C1.12703 4.35799 1.19149 4.32844 1.26131 4.32844ZM9.60978 4.69726H1.3741V9.29134C1.3741 9.40502 1.39648 9.51245 1.43766 9.61181C1.48063 9.71476 1.54329 9.80696 1.62118 9.88484C1.69906 9.96272 1.79126 10.0254 1.89421 10.0684C1.99268 10.1095 2.10099 10.1319 2.21468 10.1319H8.77189C8.88468 10.1319 8.993 10.1095 9.09147 10.0684C9.19352 10.0254 9.28662 9.96272 9.3645 9.88574C9.44238 9.80786 9.50505 9.71565 9.54712 9.61271C9.5883 9.51424 9.61068 9.40592 9.61068 9.29313V4.69726H9.60978ZM1.79574 5.3212C1.79574 5.27018 1.81632 5.22452 1.84945 5.1914C1.88257 5.15828 1.92912 5.13769 1.97925 5.13769C2.03027 5.13769 2.07593 5.15828 2.10905 5.1914C2.14217 5.22452 2.16276 5.27107 2.16276 5.3212V7.74625C2.16276 7.79728 2.14217 7.84293 2.10905 7.87605C2.07593 7.90917 2.02938 7.92976 1.97925 7.92976C1.92822 7.92976 1.88257 7.90917 1.84945 7.87605L1.84676 7.87337C1.81543 7.84024 1.79574 7.79549 1.79574 7.74625V5.3212ZM3.60758 2.77799C3.29069 2.82364 3.00602 2.88183 2.75358 2.95076C2.50024 3.02058 2.27734 3.10205 2.08577 3.19514C1.9515 3.26049 1.83244 3.33121 1.72949 3.4073C1.65698 3.46012 1.59253 3.51651 1.53524 3.5747H9.45133C9.39852 3.5192 9.33765 3.46638 9.26961 3.41625C9.17025 3.34374 9.05477 3.27661 8.92407 3.21573C8.73787 3.12801 8.52124 3.05281 8.27865 2.98657C8.03426 2.92032 7.76392 2.86572 7.47209 2.82006C7.3396 2.79947 7.20532 2.78067 7.07015 2.76367H7.06836C6.93498 2.74666 6.8007 2.73233 6.66463 2.71891C6.53125 2.70637 6.39608 2.69474 6.25822 2.68579C6.12215 2.67683 5.98698 2.66967 5.8527 2.6643C5.80168 2.66251 5.75692 2.64013 5.72469 2.60611C5.69246 2.5721 5.67367 2.52555 5.67546 2.47452V2.47363C5.67635 2.44409 5.68441 2.41634 5.69784 2.39217C5.71126 2.3671 5.73096 2.34651 5.75423 2.3295C5.78288 2.30802 5.80973 2.28385 5.83301 2.2561C5.85628 2.22924 5.87598 2.19881 5.89209 2.16747C5.9082 2.13614 5.92074 2.10302 5.92879 2.06632C5.93685 2.03141 5.94133 1.9956 5.94133 1.958C5.94133 1.89534 5.92879 1.83626 5.90641 1.78255C5.88314 1.72705 5.84912 1.67602 5.80705 1.63395C5.76497 1.59187 5.71395 1.55696 5.65845 1.53458C5.60474 1.5122 5.54565 1.49967 5.48299 1.49967C5.42033 1.49967 5.36125 1.5122 5.30754 1.53458C5.25114 1.55786 5.20101 1.59187 5.15894 1.63484C5.11686 1.67691 5.08195 1.72794 5.05957 1.78344C5.03719 1.83715 5.02466 1.89623 5.02466 1.9589C5.02466 1.9956 5.02913 2.03141 5.0363 2.06542C5.04435 2.10034 5.05688 2.13435 5.0721 2.16479C5.08822 2.19612 5.10791 2.22656 5.13029 2.25341C5.15356 2.28116 5.17952 2.30623 5.20817 2.32682C5.24845 2.35725 5.27352 2.40112 5.27979 2.44767C5.28605 2.49422 5.27531 2.54345 5.24487 2.58373C5.22697 2.60701 5.20548 2.62491 5.18131 2.63745C5.15804 2.64908 5.13208 2.65624 5.10612 2.65714H5.10075H5.09717C4.97453 2.65983 4.8492 2.6643 4.72298 2.67057C4.59855 2.67683 4.47233 2.68489 4.34253 2.69563C4.2172 2.70548 4.09277 2.71712 3.97103 2.73144C3.84839 2.74487 3.72754 2.76009 3.60758 2.77799ZM1.92554 2.86393C2.13501 2.76277 2.37581 2.67415 2.64884 2.59895C2.92008 2.52376 3.22266 2.46199 3.55566 2.41365C3.68009 2.39575 3.80542 2.37963 3.93164 2.36531C4.05965 2.35099 4.18587 2.33845 4.31299 2.32861C4.39087 2.32234 4.47233 2.31697 4.55558 2.3116C4.61287 2.30802 4.67196 2.30533 4.73104 2.30265C4.70866 2.25341 4.69075 2.20149 4.67822 2.14868C4.6639 2.0878 4.65584 2.02425 4.65584 1.9589C4.65584 1.847 4.67822 1.74047 4.71851 1.6429C4.76058 1.54174 4.82235 1.45043 4.89844 1.37434C4.97453 1.29825 5.06584 1.23649 5.16699 1.19531C5.26457 1.15502 5.37109 1.13264 5.48299 1.13264C5.59489 1.13264 5.70142 1.15502 5.79899 1.19531C5.90015 1.23738 5.99145 1.29915 6.06755 1.37434C6.14364 1.45043 6.2054 1.54174 6.24748 1.6429C6.28776 1.74047 6.31014 1.847 6.31014 1.9589C6.31014 2.02514 6.30208 2.08959 6.28687 2.15226C6.27344 2.20865 6.25374 2.26326 6.22868 2.31518C6.29671 2.31966 6.36296 2.32413 6.42741 2.3295C6.51424 2.33577 6.60465 2.34383 6.69775 2.35278C6.83651 2.36621 6.97436 2.38142 7.11312 2.39933C7.25187 2.41634 7.38973 2.43603 7.52669 2.45751C7.83732 2.50585 8.12288 2.56494 8.3807 2.63476C8.6403 2.70548 8.87394 2.78784 9.07804 2.88362C9.2911 2.98299 9.47282 3.09757 9.61963 3.22827C9.76823 3.35986 9.88102 3.50756 9.95711 3.67317C9.96338 3.6857 9.96875 3.69913 9.97233 3.71435C9.97591 3.72867 9.9777 3.743 9.9777 3.75821C9.9777 3.80924 9.95711 3.85489 9.92399 3.88802L9.92131 3.8907C9.88818 3.92203 9.84342 3.94173 9.79419 3.94173H1.17179C1.16821 3.94173 1.16553 3.94173 1.16284 3.94083C1.1512 3.93994 1.13867 3.93815 1.12793 3.93546C1.1154 3.93188 1.10286 3.9274 1.09033 3.92114C1.08765 3.92024 1.08496 3.91845 1.08228 3.91666C1.0402 3.89249 1.01066 3.854 0.997233 3.81013C0.983805 3.76627 0.986491 3.71793 1.00887 3.67496C1.00977 3.67228 1.01156 3.66959 1.01335 3.6669C1.10107 3.50488 1.22013 3.35628 1.37231 3.222C1.5236 3.08951 1.70801 2.96956 1.92554 2.86393ZM7.30558 1.96785C7.34139 2.00366 7.35929 2.0511 7.35929 2.09765C7.35929 2.1451 7.34139 2.19164 7.30558 2.22745C7.26978 2.26326 7.22233 2.28116 7.17578 2.28116C7.12834 2.28116 7.08179 2.26326 7.04598 2.22745C6.88574 2.06721 6.83651 1.92757 6.84456 1.79329C6.85262 1.6617 6.91707 1.54264 6.98511 1.41463C7.07463 1.24633 7.17757 1.05476 7.01644 0.774571L7.01465 0.77099C6.99048 0.728022 6.986 0.678787 6.99854 0.634923C7.01107 0.589268 7.04061 0.548985 7.08447 0.52392C7.12834 0.498855 7.17847 0.493484 7.22323 0.506016C7.26888 0.518549 7.30916 0.54809 7.33423 0.591954C7.46582 0.81933 7.49268 1.00642 7.4694 1.16845C7.44613 1.32958 7.37541 1.46297 7.30916 1.5865C7.23755 1.72257 7.17578 1.83805 7.30558 1.96785ZM8.69312 1.96785C8.72892 2.00366 8.74683 2.0511 8.74683 2.09765C8.74683 2.1451 8.72892 2.19164 8.69312 2.22745C8.65731 2.26326 8.60986 2.28116 8.56331 2.28116C8.51587 2.28116 8.46932 2.26326 8.43351 2.22745C8.27327 2.06721 8.22404 1.92757 8.2321 1.79329C8.24015 1.6617 8.30461 1.54264 8.37264 1.41463C8.41829 1.32869 8.46842 1.23649 8.48454 1.13354C8.50065 1.03149 8.48543 0.915115 8.40397 0.774571C8.37891 0.730707 8.37354 0.680577 8.38607 0.635818C8.3986 0.590164 8.42814 0.54988 8.472 0.524815C8.51587 0.49975 8.566 0.494379 8.61076 0.506912C8.65552 0.519444 8.6967 0.548985 8.72176 0.592849C8.85335 0.820225 8.88021 1.00732 8.85693 1.16935C8.83366 1.33048 8.76294 1.46386 8.6967 1.5874C8.6591 1.65812 8.62329 1.72436 8.61613 1.78613C8.60897 1.84431 8.62777 1.9025 8.69312 1.96785ZM3.68457 2.22835C3.64876 2.26415 3.60132 2.28206 3.55477 2.28206C3.50732 2.28206 3.46077 2.26415 3.42497 2.22835C3.38916 2.19254 3.37126 2.1451 3.37126 2.09855C3.37126 2.0511 3.38916 2.00455 3.42497 1.96874C3.55566 1.83805 3.4939 1.72257 3.42139 1.58829C3.35514 1.46386 3.28353 1.33137 3.26115 1.16935C3.23787 1.00642 3.26473 0.81933 3.39632 0.591954C3.42139 0.54809 3.46256 0.518549 3.50822 0.506912C3.55387 0.495274 3.60311 0.49975 3.64697 0.525711C3.69084 0.550776 3.72038 0.591954 3.73201 0.637608C3.74365 0.683263 3.73918 0.732498 3.71322 0.776362C3.55208 1.05566 3.65503 1.24812 3.74455 1.41552C3.81348 1.54353 3.87703 1.66259 3.88509 1.79418C3.89404 1.92846 3.84391 2.06811 3.68457 2.22835Z" fill="black"/>
</g>
<defs>
<clipPath id="clip0_184_2059">
<rect width="11" height="11" fill="white"/>
</clipPath>
</defs>
</svg>
