<svg width="4" height="9" viewBox="0 0 4 9" fill="none" xmlns="http://www.w3.org/2000/svg">
<path d="M1.76512 0C2.15622 0 2.47463 0.318414 2.47463 0.709509C2.47463 1.1006 2.15622 1.41902 1.76512 1.41902C1.37403 1.41902 1.05561 1.1006 1.05561 0.709509C1.05561 0.318414 1.37403 0 1.76512 0ZM2.65806 1.60245H0.886022C0.394557 1.60245 0 1.99701 0 2.48847V4.65507C0 4.82466 0.13498 4.96657 0.311492 4.96657C0.488004 4.96657 0.622984 4.83159 0.622984 4.65507V2.66499C0.622984 2.61653 0.664516 2.575 0.712971 2.575C0.761425 2.575 0.802956 2.61653 0.802956 2.66499V8.03649C0.802956 8.30299 1.00024 8.52104 1.24597 8.52104C1.4917 8.52104 1.68898 8.30299 1.68898 8.03649V4.97349C1.68898 4.92503 1.73051 4.8835 1.77896 4.8835C1.82742 4.8835 1.86895 4.92503 1.86895 4.97349V8.03649C1.86895 8.30299 2.06623 8.52104 2.31196 8.52104C2.55769 8.52104 2.75497 8.30299 2.75497 8.03649V2.66499C2.75497 2.61653 2.7965 2.575 2.84496 2.575C2.89341 2.575 2.93495 2.61653 2.93495 2.66499V4.65854C2.93495 4.82813 3.06993 4.97003 3.24644 4.97003C3.42295 4.97003 3.55793 4.83505 3.55793 4.65854V2.48847C3.54409 1.99701 3.13915 1.60245 2.65806 1.60245Z" fill="#585656"/>
</svg>
