<svg width="6" height="14" viewBox="0 0 6 14" fill="none" xmlns="http://www.w3.org/2000/svg">
<path d="M2.82282 0.404785C3.41365 0.404785 3.89468 0.887471 3.89468 1.48033C3.89468 2.0732 3.41365 2.55588 2.82282 2.55588C2.23199 2.55588 1.75096 2.0732 1.75096 1.48033C1.75096 0.887471 2.23199 0.404785 2.82282 0.404785ZM4.17179 2.83395H1.49476C0.752307 2.83395 0.15625 3.43206 0.15625 4.17708V7.46144C0.15625 7.71852 0.360164 7.93363 0.626821 7.93363C0.893478 7.93363 1.09739 7.72901 1.09739 7.46144V4.44465C1.09739 4.3712 1.16014 4.30824 1.23334 4.30824C1.30654 4.30824 1.36928 4.3712 1.36928 4.44465V12.5873C1.36928 12.9913 1.66731 13.3219 2.03853 13.3219C2.40976 13.3219 2.70779 12.9913 2.70779 12.5873V7.94412C2.70779 7.87067 2.77053 7.80771 2.84373 7.80771C2.91693 7.80771 2.97968 7.87067 2.97968 7.94412V12.5873C2.97968 12.9913 3.2777 13.3219 3.64893 13.3219C4.02016 13.3219 4.31819 12.9913 4.31819 12.5873V4.44465C4.31819 4.3712 4.38093 4.30824 4.45413 4.30824C4.52733 4.30824 4.59007 4.3712 4.59007 4.44465V7.46668C4.59007 7.72377 4.79399 7.93888 5.06064 7.93888C5.3273 7.93888 5.53122 7.73426 5.53122 7.46668V4.17708C5.5103 3.43206 4.89856 2.83395 4.17179 2.83395Z" fill="#585656"/>
</svg>
