<svg width="12" height="12" viewBox="0 0 12 12" fill="none" xmlns="http://www.w3.org/2000/svg">
<g clip-path="url(#clip0_184_2052)">
<path d="M7.66417 5.78369H4.61366C4.59191 5.78369 4.57422 5.80139 4.57422 5.82314V7.43411C4.57422 7.45586 4.59194 7.47356 4.61366 7.47356H7.6642C7.68592 7.47356 7.70364 7.45584 7.70364 7.43411V5.82314C7.70362 5.80139 7.68592 5.78369 7.66417 5.78369ZM7.23815 7.00809H5.03969V6.24937H7.23815V7.00809Z" fill="black"/>
<path d="M11.9606 6.62515C11.9823 6.62515 12 6.60745 12 6.5857V6.0702C12 6.04845 11.9823 6.03075 11.9606 6.03075H8.86444V3.57792C8.86308 3.05798 8.68971 2.56134 8.37607 2.17917C8.21098 1.9804 8.01429 1.82126 7.79128 1.70639C7.55189 1.58477 7.28538 1.52051 7.02061 1.52051C6.75506 1.52051 6.48837 1.58477 6.24879 1.7066C5.92069 1.87535 5.64668 2.14474 5.45639 2.48534C5.27358 2.81074 5.17699 3.18865 5.17699 3.57811C5.17699 4.02626 5.54163 4.39092 5.98959 4.39092C6.43774 4.39092 6.80238 4.02628 6.80238 3.57773C6.80105 3.43784 6.84377 3.30295 6.91709 3.21656C6.95133 3.1752 6.9802 3.15844 6.98693 3.15499C7.00345 3.14749 7.01173 3.14595 7.02059 3.14595C7.02945 3.14595 7.03788 3.14749 7.05176 3.15363C7.09369 3.17693 7.13391 3.22099 7.16548 3.27776C7.21282 3.36284 7.239 3.46962 7.239 3.57813V4.62377H5.04054V3.57813C5.04054 3.05937 4.86698 2.56273 4.55196 2.1792C4.38783 1.98101 4.19154 1.82205 3.96874 1.70641C3.72935 1.5848 3.46284 1.52053 3.19807 1.52053C2.93177 1.52053 2.66447 1.5848 2.42491 1.70662C2.09606 1.87655 1.82205 2.14573 1.6327 2.48536C1.44991 2.81306 1.35312 3.19099 1.35312 3.57813C1.35312 4.02628 1.71776 4.39095 2.16593 4.39095C2.61389 4.39095 2.97853 4.0263 2.97853 3.57813C2.97853 3.43999 3.02241 3.30162 3.09321 3.21659C3.11707 3.18771 3.14053 3.16713 3.16287 3.15502C3.17981 3.1473 3.18827 3.14597 3.19809 3.14597C3.20578 3.14597 3.21427 3.14752 3.22812 3.15366C3.27007 3.17695 3.31085 3.2212 3.34301 3.27778C3.38955 3.36129 3.41517 3.46809 3.41517 3.57816V6.03082H0.0394453C0.0176953 6.03082 0 6.04852 0 6.07027V6.5857C0 6.60745 0.0176953 6.62515 0.0394453 6.62515H3.41515C3.41515 6.62515 3.41515 9.46995 3.41515 9.47283C3.2868 9.51691 3.18 9.57 3.09996 9.61216L3.01066 9.66007C2.90578 9.71667 2.81496 9.76573 2.71451 9.80304C2.61098 9.84038 2.45859 9.88329 2.19804 9.88465C2.01237 9.88465 1.86668 9.86426 1.72566 9.81827C1.64677 9.79268 1.57191 9.75977 1.47511 9.70859L1.38544 9.66068C1.28191 9.60429 1.16454 9.54059 1.0185 9.48633C0.804328 9.40744 0.572438 9.36914 0.29768 9.36914C0.297492 9.36914 0.0394453 9.36914 0.0394453 9.36914C0.0176953 9.36914 0 9.38684 0 9.40859V9.92409C0 9.94584 0.0176953 9.96354 0.0394453 9.96354H0.297305C0.481641 9.96354 0.627492 9.98353 0.769125 10.0284C0.865523 10.0609 0.946734 10.1006 1.01986 10.1381L1.09835 10.1806C1.20495 10.2391 1.3256 10.3051 1.47666 10.3605C1.68928 10.4402 1.9252 10.4791 2.19804 10.4791C2.44455 10.4791 2.65929 10.4475 2.8548 10.383C2.98988 10.3388 3.10359 10.2834 3.19713 10.2347L3.29545 10.182C3.39668 10.1273 3.48422 10.08 3.58198 10.0438L3.60218 10.0369C3.6218 10.0301 3.64184 10.0232 3.66415 10.0174C3.78998 9.98067 3.92777 9.96356 4.09786 9.96356C4.28201 9.96356 4.42767 9.98355 4.5697 10.0284C4.62108 10.0459 4.66898 10.0648 4.71537 10.0861C4.75057 10.1025 4.78484 10.1189 4.82041 10.1381L4.8993 10.1808C5.00552 10.2391 5.12618 10.3053 5.27742 10.3605C5.49141 10.4402 5.72733 10.479 5.99862 10.479C6.24645 10.479 6.46123 10.4475 6.65536 10.383C6.79737 10.3365 6.91303 10.2793 6.99769 10.2349L7.10257 10.1789C7.20185 10.1254 7.28768 10.0792 7.38312 10.0436C7.41469 10.0323 7.4472 10.0222 7.48221 10.0122C7.60268 9.97894 7.73524 9.96354 7.89959 9.96354C8.08392 9.96354 8.2298 9.98353 8.37162 10.0284C8.42819 10.0474 8.47957 10.0684 8.52998 10.0925C8.56038 10.1065 8.59078 10.1217 8.62216 10.1381L8.70068 10.1806C8.80709 10.2389 8.92793 10.3051 9.07917 10.3605C9.29316 10.4402 9.52905 10.4791 9.80058 10.4791C10.048 10.4791 10.263 10.4475 10.4571 10.383C10.5931 10.339 10.7073 10.2834 10.801 10.2347L10.8949 10.1845C10.9976 10.1288 11.0863 10.0809 11.187 10.0448C11.2882 10.0069 11.4383 9.96356 11.7027 9.96356H11.9606C11.9823 9.96356 12 9.94584 12 9.92412V9.40861C12 9.38686 11.9823 9.36916 11.9606 9.36916H11.7027C11.4562 9.36916 11.2414 9.40015 11.0461 9.46383C10.9039 9.5104 10.7883 9.56754 10.7034 9.61219L10.6164 9.65895C10.5108 9.71609 10.4194 9.76554 10.3184 9.80306C10.2149 9.8404 10.0623 9.88331 9.80058 9.88467C9.61739 9.88467 9.46727 9.86367 9.32817 9.8183C9.24928 9.7927 9.17442 9.7598 9.07784 9.7088L9.00068 9.66724C8.95777 9.64395 8.91255 9.61952 8.86446 9.59527V6.62515H11.9606ZM7.23902 9.46516C7.10548 9.50923 6.99309 9.56405 6.90035 9.61216L6.80895 9.66143C6.70542 9.71745 6.61594 9.76591 6.51492 9.80304C6.41255 9.84038 6.2613 9.88329 5.99864 9.88465C5.81545 9.88465 5.66536 9.86365 5.52626 9.81827C5.44793 9.79287 5.37307 9.75996 5.27592 9.70877L5.19642 9.66605C5.14774 9.63968 5.09637 9.61198 5.04056 9.58409V8.63351H7.23902C7.23902 8.63348 7.23902 9.46477 7.23902 9.46516ZM8.39897 9.4203C8.24714 9.38585 8.08877 9.36914 7.91618 9.36914H7.89963C7.83075 9.36914 7.76627 9.37163 7.70452 9.37605V8.20746C7.70452 8.18571 7.6868 8.16802 7.66507 8.16802H4.61454C4.59279 8.16802 4.57509 8.18571 4.57509 8.20746V9.41569C4.43213 9.3847 4.27627 9.36914 4.09884 9.36914C4.09847 9.36914 4.09828 9.36914 4.09788 9.36914C4.01726 9.36914 3.94589 9.372 3.88083 9.37779V3.57809C3.88083 3.38681 3.83484 3.20459 3.74805 3.05123C3.6705 2.91117 3.56121 2.80069 3.44037 2.73989C3.36129 2.69986 3.28163 2.68024 3.19695 2.68024C3.11229 2.68024 3.03262 2.69986 2.95371 2.73989C2.8752 2.77915 2.79996 2.84112 2.73628 2.91886C2.59446 3.08859 2.51306 3.32892 2.51306 3.57811C2.51306 3.76957 2.35737 3.92527 2.16593 3.92527C1.97447 3.92527 1.81877 3.76957 1.81877 3.57811C1.81877 3.27082 1.89499 2.97122 2.0393 2.712C2.18515 2.45184 2.39201 2.24728 2.63735 2.12086C2.81016 2.03255 3.00391 1.98598 3.19807 1.98598C3.39049 1.98598 3.5835 2.03255 3.75628 2.12086C3.92159 2.20594 4.0688 2.32542 4.19367 2.47549C4.43958 2.77453 4.57505 3.16591 4.57505 3.57809V5.04996C4.57505 5.07169 4.59277 5.08941 4.61449 5.08941H7.66502C7.68675 5.08941 7.70447 5.07169 7.70447 5.04996V3.57809C7.70447 3.38665 7.65848 3.2044 7.57188 3.05123C7.49416 2.91077 7.38429 2.80031 7.26305 2.74008C7.18512 2.69986 7.10564 2.68024 7.02061 2.68024C6.93595 2.68024 6.85629 2.69986 6.77738 2.73989C6.70001 2.77877 6.6244 2.84053 6.55859 2.91886C6.41637 3.0907 6.33558 3.33103 6.33691 3.57811C6.33691 3.76957 6.18105 3.92527 5.98959 3.92527C5.79813 3.92527 5.64246 3.76957 5.64246 3.57811C5.64246 3.26869 5.71866 2.9693 5.86298 2.712C6.00884 2.45184 6.21569 2.24749 6.46123 2.12086C6.63401 2.03255 6.82779 1.98598 7.02194 1.98598C7.21437 1.98598 7.40735 2.03255 7.57997 2.12086C7.74661 2.20727 7.89342 2.32676 8.01621 2.47549C8.26174 2.77395 8.39759 3.16554 8.39895 3.57809L8.39897 9.4203Z" fill="black"/>
</g>
<defs>
<clipPath id="clip0_184_2052">
<rect width="12" height="12" fill="white"/>
</clipPath>
</defs>
</svg>
