<svg width="13" height="12" viewBox="0 0 13 12" fill="none" xmlns="http://www.w3.org/2000/svg">
<g clip-path="url(#clip0_184_2159)">
<path d="M3.36442 0H9.63379C9.81258 0 9.9755 0.0673828 10.0929 0.175781C10.2104 0.28418 10.2834 0.43457 10.2834 0.599609V3.49707V10.6973C10.2834 10.8623 10.2104 11.0127 10.0929 11.1211C9.9755 11.2295 9.81258 11.2969 9.63379 11.2969H9.11645V11.5625C9.11645 11.8037 8.90275 12.001 8.64144 12.001C8.38013 12.001 8.16642 11.8037 8.16642 11.5625V11.2969H4.84871V11.5625C4.84871 11.8037 4.63501 12.001 4.3737 12.001C4.11239 12.001 3.89868 11.8037 3.89868 11.5625V11.2969H3.36442C3.18563 11.2969 3.02271 11.2295 2.90527 11.1211C2.78784 11.0127 2.71484 10.8623 2.71484 10.6973V3.49707V0.599609C2.71484 0.43457 2.78784 0.28418 2.90527 0.175781C3.02271 0.0673828 3.18563 0 3.36442 0ZM3.79395 4.38379C3.79395 4.25293 3.90926 4.14648 4.05103 4.14648C4.19279 4.14648 4.30811 4.25293 4.30811 4.38379V6.37598C4.30811 6.50684 4.19279 6.61328 4.05103 6.61328C3.90926 6.61328 3.79395 6.50684 3.79395 6.37598V4.38379ZM3.79395 1.01465C3.79395 0.883789 3.90926 0.777344 4.05103 0.777344C4.19279 0.777344 4.30811 0.883789 4.30811 1.01465V2.49414C4.30811 2.625 4.19279 2.73145 4.05103 2.73145C3.90926 2.73145 3.79395 2.625 3.79395 2.49414V1.01465ZM3.23006 3.25879H9.76921V0.599609C9.76921 0.56543 9.75439 0.53418 9.729 0.511719C9.70467 0.489258 9.67082 0.474609 9.63379 0.474609H3.36442C3.32739 0.474609 3.29354 0.488281 3.26921 0.511719C3.24487 0.53418 3.229 0.56543 3.229 0.599609V3.25879H3.23006ZM9.76815 3.73438H3.23006V10.6963C3.23006 10.7305 3.24487 10.7617 3.27026 10.7842C3.2946 10.8066 3.32845 10.8213 3.36548 10.8213H9.63379C9.67082 10.8213 9.70467 10.8076 9.729 10.7842C9.75334 10.7617 9.76921 10.7305 9.76921 10.6963V3.73438H9.76815Z" fill="black"/>
</g>
<defs>
<clipPath id="clip0_184_2159">
<rect width="13" height="12" fill="white"/>
</clipPath>
</defs>
</svg>
