<svg width="14" height="15" viewBox="0 0 14 15" fill="none" xmlns="http://www.w3.org/2000/svg">
<path d="M4.88431 8.91812C5.14412 8.63852 5.45826 8.41534 5.80734 8.26228C6.15642 8.10928 6.53332 8.02975 6.9143 8.02841C7.29521 8.02707 7.6724 8.10407 8.02253 8.25467C8.37266 8.40527 8.68844 8.62621 8.95017 8.90396M3.66104 7.21347C4.07674 6.76615 4.57935 6.4091 5.13789 6.16422C5.69643 5.91936 6.29897 5.79199 6.90844 5.78985C7.51796 5.78772 8.12119 5.91098 8.68141 6.15192C9.24164 6.39287 9.74698 6.74645 10.1658 7.19086M2.0293 5.68703C2.65283 5.01607 3.40676 4.48042 4.24457 4.11313C5.08238 3.74585 5.98587 3.55452 6.90013 3.55131C7.81445 3.54811 8.72028 3.733 9.56065 4.09441C10.401 4.45582 11.1588 4.9865 11.787 5.65308M6.924 11.3862C6.61597 11.3862 6.36629 11.1357 6.36629 10.8266C6.36629 10.5175 6.61597 10.2669 6.924 10.2669C7.23202 10.2669 7.48171 10.5175 7.48171 10.8266C7.48171 11.1357 7.23202 11.3862 6.924 11.3862Z" stroke="black" stroke-width="1.5" stroke-linecap="round" stroke-linejoin="round"/>
</svg>
