<svg width="12" height="12" viewBox="0 0 12 12" fill="none" xmlns="http://www.w3.org/2000/svg">
<path d="M4.1709 7.29495C4.40382 7.04515 4.68545 6.84575 4.99841 6.709C5.31136 6.5723 5.64926 6.50125 5.99081 6.50005C6.33231 6.49885 6.67046 6.56765 6.98436 6.7022C7.29826 6.83675 7.58136 7.03415 7.81601 7.2823M3.07422 5.77195C3.44689 5.3723 3.8975 5.0533 4.39824 4.83451C4.89898 4.61574 5.43916 4.50195 5.98556 4.50004C6.53201 4.49813 7.07281 4.60826 7.57506 4.82352C8.07731 5.0388 8.53036 5.3547 8.90586 5.75175M1.61133 4.40818C2.17034 3.80871 2.84625 3.33014 3.59736 3.00199C4.34847 2.67384 5.15846 2.5029 5.97811 2.50004C6.79781 2.49718 7.60991 2.66236 8.36331 2.98526C9.11671 3.30816 9.79606 3.78229 10.3593 4.37784M5.99951 9.50005C5.72336 9.50005 5.49951 9.2762 5.49951 9.00005C5.49951 8.7239 5.72336 8.50005 5.99951 8.50005C6.27566 8.50005 6.49951 8.7239 6.49951 9.00005C6.49951 9.2762 6.27566 9.50005 5.99951 9.50005Z" stroke="black" stroke-width="0.5" stroke-linecap="round" stroke-linejoin="round"/>
</svg>
