<svg width="11" height="12" viewBox="0 0 11 12" fill="none" xmlns="http://www.w3.org/2000/svg">
<path d="M9.14375 7.8001C9.31562 7.59385 9.41875 7.33135 9.41875 7.0501C9.41875 6.4501 8.97187 5.94385 8.40469 5.94385H2.97344C1.61562 5.94385 0.515625 7.14385 0.515625 8.6251C0.515625 10.1063 1.61562 11.3063 2.97344 11.3063H8.85156C9.74531 11.3063 10.4672 10.5188 10.4672 9.54385C10.4844 8.6626 9.9 7.9501 9.14375 7.8001ZM8.86875 10.9313H2.97344C1.80469 10.9313 0.859375 9.9001 0.859375 8.6251C0.859375 7.3501 1.80469 6.31885 2.97344 6.31885H8.40469C8.76562 6.31885 9.075 6.6376 9.075 7.0501C9.075 7.44385 8.78281 7.78135 8.40469 7.78135H2.81875C2.38906 7.81885 2.02812 8.23135 2.02812 8.71885C2.02812 9.24385 2.40625 9.65635 2.8875 9.65635H7.92344V9.28135H2.90469C2.6125 9.28135 2.38906 9.0376 2.38906 8.71885C2.38906 8.4001 2.6125 8.15635 2.90469 8.15635H8.86875C9.57344 8.15635 10.1406 8.7751 10.1406 9.54385C10.1406 10.3126 9.57344 10.9313 8.86875 10.9313Z" fill="black"/>
</svg>
