<svg width="11" height="13" viewBox="0 0 11 13" fill="none" xmlns="http://www.w3.org/2000/svg">
<path d="M6.53125 4.0625C6.53125 2.925 5.775 2.03125 4.8125 2.03125V6.90625V8.53125V11.0094C4.8125 11.4156 5.0875 11.7812 5.46562 11.7812C5.84375 11.7812 6.15312 11.375 6.11875 10.9281L5.94687 8.89687C5.9125 8.36875 6.15313 7.88125 6.56563 7.71875V4.0625H6.53125Z" stroke="black" stroke-width="0.3" stroke-miterlimit="10" stroke-linecap="round" stroke-linejoin="round"/>
<path d="M9.17813 7.19063C9.14375 6.6625 9.28125 6.13437 9.59062 5.76875C9.83125 5.48437 9.96875 4.95625 9.96875 4.26562C9.96875 3.04688 9.52188 2.03125 8.9375 2.03125C8.35312 2.03125 7.90625 3.00625 7.90625 4.26562C7.90625 4.95625 8.04375 5.44375 8.28438 5.76875C8.59375 6.175 8.73125 6.6625 8.69687 7.19063L8.35312 10.9688C8.31875 11.375 8.59375 11.7812 8.9375 11.7812C9.31563 11.7812 9.59063 11.4156 9.52188 10.9688L9.17813 7.19063Z" stroke="black" stroke-width="0.3" stroke-miterlimit="10" stroke-linecap="round" stroke-linejoin="round"/>
<path d="M1.03125 2.03125V4.26562C1.03125 4.95625 1.16875 5.44375 1.40937 5.76875C1.71875 6.175 1.85625 6.6625 1.82188 7.19063L1.47813 10.9688C1.44375 11.375 1.71875 11.7812 2.0625 11.7812C2.44063 11.7812 2.71562 11.4156 2.64687 10.9688L2.30312 7.19063C2.26875 6.6625 2.40625 6.13437 2.71563 5.76875C2.95625 5.48437 3.09375 4.95625 3.09375 4.26562V2.03125" stroke="black" stroke-width="0.3" stroke-miterlimit="10" stroke-linecap="round" stroke-linejoin="round"/>
<path d="M2.0625 4.46875V2.03125" stroke="black" stroke-width="0.3" stroke-miterlimit="10" stroke-linecap="round" stroke-linejoin="round"/>
</svg>
