<svg width="13" height="12" viewBox="0 0 13 12" fill="none" xmlns="http://www.w3.org/2000/svg">
<g clip-path="url(#clip0_184_2061)">
<path d="M4.16 3.12012C4.03 3.12012 3.88477 3.17637 3.8025 3.27762C3.72023 3.37887 3.705 3.49324 3.71312 3.60012C3.73039 3.81387 3.84414 4.02855 4.03813 4.23762C4.42609 4.65574 5.15836 5.04012 6.24 5.04012C7.27695 5.04012 7.85586 4.91168 8.255 4.78512C8.65414 4.65855 8.82578 4.56012 9.14062 4.56012C9.45547 4.56012 9.98359 4.6698 10.4081 4.98762C10.8327 5.30543 11.18 5.82012 11.18 6.72012H9.62V6.44262C9.62 6.07043 9.28383 5.76012 8.88062 5.76012H7.49937C7.09617 5.76012 6.76 6.07043 6.76 6.44262V6.72762C4.74906 6.81105 2.81023 7.85637 0.91 10.3726C0.900859 10.382 0.892734 10.3923 0.885625 10.4026C0.866328 10.4204 0.850078 10.4401 0.836875 10.4626C0.830781 10.472 0.825703 10.4823 0.820625 10.4926C0.569766 10.8311 0.321953 11.1967 0.073125 11.5876C0.0670314 11.5951 0.0619531 11.6026 0.056875 11.6101C0.0548439 11.6129 0.0507814 11.6148 0.04875 11.6176C0.0457031 11.6204 0.0436719 11.6223 0.040625 11.6251C0.0375781 11.6298 0.0355469 11.6354 0.0325 11.6401C0.0294531 11.6429 0.0274219 11.6448 0.024375 11.6476C0.024375 11.6523 0.024375 11.6579 0.024375 11.6626C0.0213281 11.6673 0.0182812 11.6729 0.01625 11.6776C0.0132031 11.6804 0.0111719 11.6823 0.008125 11.6851C0.008125 11.6879 0.008125 11.6898 0.008125 11.6926C0.008125 11.6973 0.008125 11.7029 0.008125 11.7076C0.00507814 11.7104 0.00304689 11.7123 0 11.7151C0 11.7198 0 11.7254 0 11.7301C0 11.7329 0 11.7348 0 11.7376C0 11.7423 0 11.7479 0 11.7526C0 11.7554 0 11.7573 0 11.7601C0 11.7676 0 11.7751 0 11.7826C0 11.7854 0 11.7873 0 11.7901C0 11.7948 0 11.8004 0 11.8051C0 11.8079 0 11.8098 0 11.8126C0.00203125 11.8173 0.00507814 11.8229 0.008125 11.8276C0.008125 11.8304 0.008125 11.8323 0.008125 11.8351C0.0101562 11.8398 0.0132031 11.8454 0.01625 11.8501C0.0182812 11.8548 0.0213281 11.8604 0.024375 11.8651C0.024375 11.8679 0.024375 11.8698 0.024375 11.8726C0.0274219 11.8754 0.0294531 11.8773 0.0325 11.8801C0.0396094 11.8904 0.0477344 11.9007 0.056875 11.9101C0.0589064 11.9148 0.0619531 11.9204 0.065 11.9251C0.0680469 11.9279 0.0700781 11.9298 0.073125 11.9326C0.0761719 11.9326 0.0782031 11.9326 0.08125 11.9326C0.0832814 11.9373 0.0863281 11.9429 0.089375 11.9476C0.0924219 11.9476 0.0944531 11.9476 0.0975 11.9476C0.102578 11.9532 0.107656 11.9579 0.11375 11.9626C0.116797 11.9626 0.118828 11.9626 0.121875 11.9626C0.126953 11.9654 0.133047 11.9682 0.138125 11.9701C0.14625 11.9757 0.154375 11.9804 0.1625 11.9851C0.177734 11.9917 0.195 11.9964 0.21125 12.0001C0.214297 12.0001 0.216328 12.0001 0.219375 12.0001C0.224453 12.0001 0.230547 12.0001 0.235625 12.0001C0.238672 12.0001 0.240703 12.0001 0.24375 12.0001C0.26 12.0011 0.27625 12.0011 0.2925 12.0001H12.48C12.7644 12.0001 13 11.7826 13 11.5201V10.8826C13.001 10.8704 13.001 10.8573 13 10.8451V10.8001C13.002 10.7851 13.002 10.7701 13 10.7551V7.00512C13.002 6.99012 13.002 6.97512 13 6.96012C13 6.94981 13 6.94043 13 6.93012C13.001 6.91981 13.001 6.91043 13 6.90012C12.9878 5.56887 12.5795 4.61168 11.8787 3.99762C11.1678 3.37418 10.1837 3.12012 9.1 3.12012H4.16ZM4.24125 3.60012H9.1C10.0963 3.60012 10.9322 3.82605 11.5212 4.34262C12.0717 4.82449 12.4272 5.58199 12.4719 6.72012H11.7C11.7 5.70012 11.2714 5.0148 10.7331 4.61262C10.1948 4.21043 9.57531 4.08012 9.14062 4.08012C8.70594 4.08012 8.44086 4.22168 8.08437 4.33512C7.72789 4.44855 7.23227 4.56012 6.24 4.56012C5.29242 4.56012 4.70945 4.22449 4.42812 3.92262C4.29914 3.78387 4.25344 3.66574 4.24125 3.60012ZM7.49937 6.24012H8.88062C9.0025 6.24012 9.1 6.33012 9.1 6.44262V6.72012H7.28V6.44262C7.28 6.33012 7.3775 6.24012 7.49937 6.24012ZM7.02812 7.20012H12.48V10.3201H1.5925C3.41352 8.02606 5.18578 7.20012 7.02812 7.20012ZM6.24 8.40012C5.95258 8.40012 5.72 8.61481 5.72 8.88012C5.72 9.14543 5.95258 9.36012 6.24 9.36012C6.52742 9.36012 6.76 9.14543 6.76 8.88012C6.76 8.61481 6.52742 8.40012 6.24 8.40012ZM8.06 8.40012C7.77258 8.40012 7.54 8.61481 7.54 8.88012C7.54 9.14543 7.77258 9.36012 8.06 9.36012C8.34742 9.36012 8.58 9.14543 8.58 8.88012C8.58 8.61481 8.34742 8.40012 8.06 8.40012ZM9.88 8.40012C9.59258 8.40012 9.36 8.61481 9.36 8.88012C9.36 9.14543 9.59258 9.36012 9.88 9.36012C10.1674 9.36012 10.4 9.14543 10.4 8.88012C10.4 8.61481 10.1674 8.40012 9.88 8.40012ZM1.22687 10.8001H12.48V10.8451C12.48 10.8526 12.48 10.8601 12.48 10.8676V11.5201H0.723125C0.889687 11.2679 1.06133 11.027 1.22687 10.8001Z" fill="black"/>
</g>
<defs>
<clipPath id="clip0_184_2061">
<rect width="13" height="12" fill="white"/>
</clipPath>
</defs>
</svg>
