<svg width="11" height="12" viewBox="0 0 11 12" fill="none" xmlns="http://www.w3.org/2000/svg">
<path d="M1.54 1.43994C1.48166 1.43995 1.42571 1.46525 1.38445 1.51025L0.724453 2.23025C0.697582 2.25954 0.678118 2.29591 0.667952 2.33583C0.657787 2.37575 0.657268 2.41786 0.666445 2.45807L0.886445 3.41807C0.898339 3.47003 0.925821 3.51616 0.964519 3.54911C1.00322 3.58207 1.05091 3.59996 1.1 3.59994H2.2V4.07994H1.89148C1.4761 4.07994 1.09531 4.33649 0.908789 4.74135L0.915664 4.72729L0.162422 6.12369C0.0562126 6.3125 0 6.52953 0 6.75088V8.954C0 9.30801 0.2676 9.59994 0.592109 9.59994H0.900195C1.00587 10.2787 1.54876 10.7999 2.2 10.7999C2.85124 10.7999 3.39413 10.2787 3.4998 9.59994H7.5002C7.60587 10.2787 8.14876 10.7999 8.8 10.7999C9.45124 10.7999 9.99413 10.2787 10.0998 9.59994H10.34C10.702 9.59994 11 9.27485 11 8.87994V7.77322C11 7.1883 10.6097 6.68597 10.0809 6.58963L8.24871 6.25635L6.7173 4.5065C6.50839 4.23601 6.20047 4.07994 5.87641 4.07994H5.72V3.59994H6.82C6.86086 3.59994 6.90091 3.58754 6.93567 3.56411C6.97043 3.54068 6.99852 3.50715 7.0168 3.46729L7.4568 2.50729C7.47136 2.47553 7.47928 2.44065 7.47999 2.40515C7.4807 2.36965 7.47418 2.33443 7.4609 2.30201C7.44763 2.26959 7.42792 2.24079 7.40321 2.21769C7.3785 2.19458 7.3494 2.17774 7.31801 2.16838L4.89801 1.44838C4.8791 1.44276 4.85959 1.43992 4.84 1.43994H1.54ZM1.63109 1.91994H4.81035L6.94332 2.55463L6.68422 3.11994H1.27188L1.12363 2.47354L1.63109 1.91994ZM2.64 3.59994H5.28V4.07994H2.64V3.59994ZM1.89148 4.55994H3.74V6.23994H0.610156L1.29852 4.964L1.30195 4.9565C1.41419 4.71288 1.64159 4.55994 1.89148 4.55994ZM4.18 4.55994H5.87641C6.0711 4.55994 6.25538 4.65341 6.38086 4.81588L6.38516 4.8215L7.62566 6.23994H4.18V4.55994ZM0.441719 6.71994H8.12152L10.0087 7.06307C10.3283 7.12129 10.56 7.41975 10.56 7.77322V8.87994C10.56 9.01303 10.462 9.11994 10.34 9.11994H10.0998C9.99413 8.44117 9.45124 7.91994 8.8 7.91994C8.14876 7.91994 7.60587 8.44117 7.5002 9.11994H3.4998C3.39413 8.44117 2.85124 7.91994 2.2 7.91994C1.54876 7.91994 1.00587 8.44117 0.900195 9.11994H0.592109C0.505659 9.11994 0.44 9.04831 0.44 8.954V6.75088C0.44 6.74049 0.441311 6.73029 0.441719 6.71994ZM2.2 8.39994C2.68848 8.39994 3.08 8.82705 3.08 9.35994C3.08 9.89283 2.68848 10.3199 2.2 10.3199C1.71152 10.3199 1.32 9.89283 1.32 9.35994C1.32 8.82705 1.71152 8.39994 2.2 8.39994ZM8.8 8.39994C9.28848 8.39994 9.68 8.82705 9.68 9.35994C9.68 9.89283 9.28848 10.3199 8.8 10.3199C8.31152 10.3199 7.92 9.89283 7.92 9.35994C7.92 8.82705 8.31152 8.39994 8.8 8.39994Z" fill="black"/>
</svg>
