<svg width="11" height="13" viewBox="0 0 11 13" fill="none" xmlns="http://www.w3.org/2000/svg">
<path fill-rule="evenodd" clip-rule="evenodd" d="M1.22852 1.21875V11.7812C1.22852 12.1178 1.45934 12.3906 1.74414 12.3906C3.0803 12.3906 7.91961 12.3906 9.25577 12.3906C9.54056 12.3906 9.77139 12.1178 9.77139 11.7812V1.21875C9.77139 0.882172 9.54056 0.609375 9.25577 0.609375C7.91961 0.609375 3.0803 0.609375 1.74414 0.609375C1.45934 0.609375 1.22852 0.882172 1.22852 1.21875ZM9.42764 11.375V11.7812C9.42764 11.8934 9.35064 11.9844 9.25577 11.9844H1.74414C1.64927 11.9844 1.57227 11.8934 1.57227 11.7812V11.375H9.42764ZM1.57227 4.0625V10.9688H9.42764V4.0625H1.57227ZM7.98527 8.32812H8.42183C8.5167 8.32812 8.5937 8.23712 8.5937 8.125V6.90625C8.5937 6.79413 8.5167 6.70312 8.42183 6.70312H7.98527C7.68397 5.41552 6.68486 4.46875 5.49995 4.46875C4.077 4.46875 2.92183 5.83395 2.92183 7.51562C2.92183 9.1973 4.077 10.5625 5.49995 10.5625C6.68486 10.5625 7.68397 9.61573 7.98527 8.32812ZM7.62639 6.70312C7.33627 5.64281 6.49339 4.875 5.49995 4.875C4.26675 4.875 3.26558 6.0582 3.26558 7.51562C3.26558 8.97305 4.26675 10.1562 5.49995 10.1562C6.49339 10.1562 7.33627 9.38844 7.62639 8.32812H7.08688C6.82081 9.05227 6.21014 9.55927 5.49995 9.55927C4.54553 9.55927 3.77072 8.64358 3.77072 7.51562C3.77072 6.38767 4.54553 5.47198 5.49995 5.47198C6.21014 5.47198 6.82081 5.97898 7.08688 6.70312H7.62639ZM6.7103 6.71856C6.47328 6.21745 6.01988 5.87823 5.49995 5.87823C4.73528 5.87823 4.11447 6.61192 4.11447 7.51562C4.11447 8.41933 4.73528 9.15302 5.49995 9.15302C6.01988 9.15302 6.47328 8.8138 6.7103 8.31269C6.39508 8.23895 6.15686 7.90989 6.15686 7.51562C6.15686 7.12136 6.39508 6.7923 6.7103 6.71856ZM8.24995 7.10938H6.84436C6.65478 7.10938 6.50061 7.29138 6.50061 7.51562C6.50061 7.73987 6.65478 7.92188 6.84436 7.92188H8.24995V7.10938ZM9.42764 3.65625H1.57227V1.21875C1.57227 1.10662 1.64927 1.01562 1.74414 1.01562H9.25577C9.35064 1.01562 9.42764 1.10662 9.42764 1.21875V3.65625ZM4.81245 1.625C4.81245 1.51288 4.73545 1.42188 4.64058 1.42188H2.06245C1.96758 1.42188 1.89058 1.51288 1.89058 1.625V3.04688C1.89058 3.159 1.96758 3.25 2.06245 3.25H4.64058C4.73545 3.25 4.81245 3.159 4.81245 3.04688V1.625ZM8.50777 1.72656C8.1757 1.72656 7.9062 2.04506 7.9062 2.4375C7.9062 2.82994 8.1757 3.14844 8.50777 3.14844C8.83983 3.14844 9.10933 2.82994 9.10933 2.4375C9.10933 2.04506 8.83983 1.72656 8.50777 1.72656ZM6.96089 1.72656C6.62883 1.72656 6.35933 2.04506 6.35933 2.4375C6.35933 2.82994 6.62883 3.14844 6.96089 3.14844C7.29295 3.14844 7.56245 2.82994 7.56245 2.4375C7.56245 2.04506 7.29295 1.72656 6.96089 1.72656ZM4.4687 1.82812V2.84375H2.23433V1.82812H4.4687ZM8.50777 2.13281C8.65008 2.13281 8.76558 2.26931 8.76558 2.4375C8.76558 2.60569 8.65008 2.74219 8.50777 2.74219C8.36545 2.74219 8.24995 2.60569 8.24995 2.4375C8.24995 2.26931 8.36545 2.13281 8.50777 2.13281ZM6.96089 2.13281C7.1032 2.13281 7.2187 2.26931 7.2187 2.4375C7.2187 2.60569 7.1032 2.74219 6.96089 2.74219C6.81858 2.74219 6.70308 2.60569 6.70308 2.4375C6.70308 2.26931 6.81858 2.13281 6.96089 2.13281Z" fill="black"/>
</svg>
