<svg width="28" height="28" viewBox="0 0 28 28" fill="none" xmlns="http://www.w3.org/2000/svg">
<path d="M16.625 8.75C16.625 6.3 14.7 4.375 12.25 4.375V14.875V18.375V23.7125C12.25 24.5875 12.95 25.375 13.9125 25.375C14.875 25.375 15.6625 24.5 15.575 23.5375L15.1375 19.1625C15.05 18.025 15.6625 16.975 16.7125 16.625V8.75H16.625Z" stroke="black" stroke-width="1.2" stroke-miterlimit="10" stroke-linecap="round" stroke-linejoin="round"/>
<path d="M23.3625 15.4875C23.275 14.35 23.625 13.2125 24.4125 12.425C25.025 11.8125 25.375 10.675 25.375 9.1875C25.375 6.5625 24.2375 4.375 22.75 4.375C21.2625 4.375 20.125 6.475 20.125 9.1875C20.125 10.675 20.475 11.725 21.0875 12.425C21.875 13.3 22.225 14.35 22.1375 15.4875L21.2625 23.625C21.175 24.5 21.875 25.375 22.75 25.375C23.7125 25.375 24.4125 24.5875 24.2375 23.625L23.3625 15.4875Z" stroke="black" stroke-width="1.2" stroke-miterlimit="10" stroke-linecap="round" stroke-linejoin="round"/>
<path d="M2.625 4.375V9.1875C2.625 10.675 2.975 11.725 3.5875 12.425C4.375 13.3 4.725 14.35 4.6375 15.4875L3.7625 23.625C3.675 24.5 4.375 25.375 5.25 25.375C6.2125 25.375 6.9125 24.5875 6.7375 23.625L5.8625 15.4875C5.775 14.35 6.125 13.2125 6.9125 12.425C7.525 11.8125 7.875 10.675 7.875 9.1875V4.375" stroke="black" stroke-width="1.2" stroke-miterlimit="10" stroke-linecap="round" stroke-linejoin="round"/>
<path d="M5.25 9.625V4.375" stroke="black" stroke-width="1.2" stroke-miterlimit="10" stroke-linecap="round" stroke-linejoin="round"/>
</svg>
