<svg width="28" height="28" viewBox="0 0 28 28" fill="none" xmlns="http://www.w3.org/2000/svg">
<g clip-path="url(#clip0_331_1782)">
<path d="M6.72 0C4.9875 0 3.72094 0.223125 2.8525 0.98C1.98406 1.73688 1.68 2.92906 1.68 4.48V6.72H1.12C0.5075 6.72 0 7.2275 0 7.84V12.32C0 12.9325 0.5075 13.44 1.12 13.44H1.68V22.96C1.68 23.6447 1.89438 24.22 2.24 24.6575V26.32C2.24 27.2409 2.99906 28 3.92 28H6.16C7.08094 28 7.84 27.2409 7.84 26.32V25.76H20.16V26.32C20.16 27.2409 20.9191 28 21.84 28H24.08C25.0009 28 25.76 27.2409 25.76 26.32V24.6575C26.1056 24.22 26.32 23.6447 26.32 22.96V13.44H26.88C27.4925 13.44 28 12.9325 28 12.32V7.84C28 7.2275 27.4925 6.72 26.88 6.72H26.32V5.04C26.32 3.55906 26.2019 2.34719 25.6025 1.4175C25.0031 0.487813 23.905 0 22.4 0H6.72ZM6.72 1.12H22.4C23.695 1.12 24.2769 1.42406 24.6575 2.0125C25.0381 2.60094 25.2 3.63125 25.2 5.04V22.96C25.2 23.7366 24.9769 24.0428 24.5175 24.29C24.0581 24.5372 23.2881 24.64 22.4 24.64H5.6C4.71188 24.64 3.94188 24.5372 3.4825 24.29C3.02313 24.0428 2.8 23.7366 2.8 22.96V4.48C2.8 3.07125 3.05594 2.30125 3.5875 1.8375C4.11906 1.37375 5.0925 1.12 6.72 1.12ZM8.4 1.68C7.7875 1.68 7.28 2.1875 7.28 2.8V3.92C7.28 4.5325 7.7875 5.04 8.4 5.04H20.16C20.7725 5.04 21.28 4.5325 21.28 3.92V2.8C21.28 2.1875 20.7725 1.68 20.16 1.68H8.4ZM8.4 2.8H20.16V3.92H8.4V2.8ZM6.16 5.6C5.50594 5.6 4.90875 5.76625 4.4975 6.1775C4.08625 6.58875 3.92 7.18594 3.92 7.84V14.56C3.92 15.2141 4.08625 15.8112 4.4975 16.2225C4.90875 16.6338 5.50594 16.8 6.16 16.8L21.84 16.765C22.2972 16.765 22.7894 16.59 23.24 16.24C23.6906 15.89 24.08 15.3016 24.08 14.56V7.84C24.08 7.18594 23.9137 6.58875 23.5025 6.1775C23.0912 5.76625 22.4941 5.6 21.84 5.6H6.16ZM6.16 6.72H21.84C22.3059 6.72 22.5487 6.83375 22.6975 6.9825C22.8463 7.13125 22.96 7.37406 22.96 7.84V14.56C22.96 14.9384 22.8003 15.1594 22.5575 15.3475C22.3147 15.5356 21.9691 15.645 21.84 15.645L6.16 15.68C5.69406 15.68 5.45125 15.5662 5.3025 15.4175C5.15375 15.2688 5.04 15.0259 5.04 14.56V7.84C5.04 7.37406 5.15375 7.13125 5.3025 6.9825C5.45125 6.83375 5.69406 6.72 6.16 6.72ZM1.12 7.84H1.68V12.32H1.12V7.84ZM26.32 7.84H26.88V12.32H26.32V7.84ZM6.44 18.48C5.05531 18.48 3.92 19.6153 3.92 21C3.92 22.3847 5.05531 23.52 6.44 23.52C7.82469 23.52 8.96 22.3847 8.96 21C8.96 19.6153 7.82469 18.48 6.44 18.48ZM21.56 18.48C20.1753 18.48 19.04 19.6153 19.04 21C19.04 22.3847 20.1753 23.52 21.56 23.52C22.9447 23.52 24.08 22.3847 24.08 21C24.08 19.6153 22.9447 18.48 21.56 18.48ZM6.44 19.6C7.21875 19.6 7.84 20.2213 7.84 21C7.84 21.7787 7.21875 22.4 6.44 22.4C5.66125 22.4 5.04 21.7787 5.04 21C5.04 20.2213 5.66125 19.6 6.44 19.6ZM21.56 19.6C22.3388 19.6 22.96 20.2213 22.96 21C22.96 21.7787 22.3388 22.4 21.56 22.4C20.7812 22.4 20.16 21.7787 20.16 21C20.16 20.2213 20.7812 19.6 21.56 19.6ZM3.36 25.445C4.03156 25.6987 4.79719 25.76 5.6 25.76H6.72V26.32C6.72 26.635 6.475 26.88 6.16 26.88H3.92C3.605 26.88 3.36 26.635 3.36 26.32V25.445ZM24.64 25.445V26.32C24.64 26.635 24.395 26.88 24.08 26.88H21.84C21.525 26.88 21.28 26.635 21.28 26.32V25.76H22.4C23.2028 25.76 23.9684 25.6987 24.64 25.445Z" fill="black"/>
</g>
<defs>
<clipPath id="clip0_331_1782">
<rect width="28" height="28" fill="white"/>
</clipPath>
</defs>
</svg>
