<svg width="28" height="28" viewBox="0 0 28 28" fill="none" xmlns="http://www.w3.org/2000/svg">
<g clip-path="url(#clip0_40_423)">
<path d="M19.3667 20.3596H9.05322V21.4796H19.3667V20.3596Z" fill="black"/>
<path d="M3.55627 20.4399H1.96279C1.50052 20.4399 1.12 20.0597 1.12 19.5979V5.60186C1.12 5.14016 1.50054 4.75989 1.96279 4.75989H26.0372C26.4996 4.75989 26.88 5.14005 26.88 5.60186V19.5979C26.88 20.0598 26.4996 20.4399 26.0372 20.4399H25.065V21.5599H26.0372C27.118 21.5599 28 20.6785 28 19.5979V5.60186C28 4.52135 27.118 3.63989 26.0372 3.63989H1.96279C0.882137 3.63989 0 4.52143 0 5.60186V19.5979C0 20.6784 0.882137 21.5599 1.96279 21.5599H3.55627V20.4399Z" fill="black"/>
<path d="M8.60788 20.963C8.60788 19.7397 7.61613 18.7479 6.3928 18.7479C5.16971 18.7479 4.17801 19.7397 4.17801 20.963C4.17801 22.1862 5.16971 23.1781 6.3928 23.1781C7.61613 23.1781 8.60788 22.1863 8.60788 20.963ZM9.72789 20.963C9.72789 22.8048 8.23472 24.2981 6.3928 24.2981C4.55111 24.2981 3.05801 22.8048 3.05801 20.963C3.05801 19.1212 4.55111 17.6279 6.3928 17.6279C8.2347 17.6279 9.72789 19.1212 9.72789 20.963ZM24.3658 20.963C24.3658 19.7397 23.3741 18.7479 22.1508 18.7479C20.9277 18.7479 19.936 19.7397 19.936 20.963C19.936 22.1862 20.9277 23.1781 22.1508 23.1781C23.3741 23.1781 24.3658 22.1863 24.3658 20.963ZM25.4858 20.963C25.4858 22.8048 23.9927 24.2981 22.1508 24.2981C20.3091 24.2981 18.816 22.8048 18.816 20.963C18.816 19.1212 20.3091 17.6279 22.1508 17.6279C23.9927 17.6279 25.4858 19.1212 25.4858 20.963ZM27.2066 12.9676H20.7759C20.7391 12.9676 20.7027 12.9604 20.6687 12.9463C20.6347 12.9322 20.6038 12.9116 20.5778 12.8856C20.5518 12.8596 20.5312 12.8288 20.5172 12.7948C20.5031 12.7608 20.4958 12.7244 20.4959 12.6876V4.47998H19.3759V12.6876C19.3759 13.4608 20.0026 14.0876 20.7759 14.0876H27.2066V12.9676ZM16.8629 12.9723C17.0176 12.9723 17.1429 12.847 17.1429 12.6923V7.28829C17.1429 7.13361 17.0176 7.00829 16.8629 7.00829H3.65366C3.61689 7.00829 3.58048 7.01552 3.5465 7.02959C3.51253 7.04366 3.48166 7.06429 3.45566 7.09029C3.42965 7.11629 3.40903 7.14716 3.39496 7.18113C3.38089 7.21511 3.37366 7.25152 3.37366 7.28829V12.6923C3.37366 12.847 3.49898 12.9723 3.65366 12.9723H16.8629ZM16.8629 14.0923H3.65366C2.88044 14.0923 2.25366 13.4655 2.25366 12.6923V7.28829C2.25366 6.51507 2.88044 5.88829 3.65366 5.88829H16.8629C17.6362 5.88829 18.2629 6.51507 18.2629 7.28829V12.6923C18.2629 13.4655 17.6362 14.0923 16.8629 14.0923Z" fill="black"/>
<path d="M9.69849 6.78418V13.3437H10.8185V6.78418H9.69849Z" fill="black"/>
</g>
<defs>
<clipPath id="clip0_40_423">
<rect width="28" height="28" fill="white"/>
</clipPath>
</defs>
</svg>
