<svg width="28" height="28" viewBox="0 0 28 28" fill="none" xmlns="http://www.w3.org/2000/svg">
<path d="M2.67163 9.07696V20.4286C2.67163 22.6453 4.24663 23.5553 6.15996 22.4586L8.90163 20.8953C9.49663 20.557 10.4883 20.522 11.1066 20.837L17.2316 23.9053C17.85 24.2086 18.8416 24.1853 19.4366 23.847L24.4883 20.9536C25.13 20.5803 25.6666 19.6703 25.6666 18.9236V7.57196C25.6666 5.3553 24.0916 4.4453 22.1783 5.54196L19.4366 7.1053C18.8416 7.44363 17.85 7.47863 17.2316 7.16363L11.1066 4.10696C10.4883 3.80363 9.49663 3.82696 8.90163 4.1653L3.84996 7.05863C3.19663 7.43196 2.67163 8.34196 2.67163 9.07696Z" stroke="#292D32" stroke-width="1.5" stroke-linecap="round" stroke-linejoin="round"/>
<path d="M9.98657 4.66699V19.8337" stroke="#292D32" stroke-width="1.5" stroke-linecap="round" stroke-linejoin="round"/>
<path d="M18.3516 7.72363V23.3336" stroke="#292D32" stroke-width="1.5" stroke-linecap="round" stroke-linejoin="round"/>
</svg>
