<svg width="28" height="28" viewBox="0 0 28 28" fill="none" xmlns="http://www.w3.org/2000/svg">
<path d="M0.583252 3.9668C2.82325 3.9668 2.82325 5.07513 5.05159 5.07513C7.27992 5.07513 7.29158 3.9668 9.51992 3.9668C11.7483 3.9668 11.7599 5.07513 13.9883 5.07513C16.2166 5.07513 16.2283 3.9668 18.4566 3.9668C20.6849 3.9668 20.6966 5.07513 22.9366 5.07513C25.1766 5.07513 25.1766 3.9668 27.4166 3.9668" stroke="#020202" stroke-width="1.5" stroke-miterlimit="10"/>
<path d="M0.583252 10.6748C2.82325 10.6748 2.82325 11.7831 5.05159 11.7831C7.27992 11.7831 7.29158 10.6748 9.51992 10.6748C11.7483 10.6748 11.7599 11.7831 13.9883 11.7831C16.2166 11.7831 16.2283 10.6748 18.4566 10.6748C20.6849 10.6748 20.6966 11.7831 22.9366 11.7831C25.1766 11.7831 25.1766 10.6748 27.4166 10.6748" stroke="#020202" stroke-width="1.5" stroke-miterlimit="10"/>
<path d="M0.583252 17.3833C2.82325 17.3833 2.82325 18.4916 5.05159 18.4916C7.27992 18.4916 7.29158 17.3833 9.51992 17.3833C11.7483 17.3833 11.7599 18.4916 13.9883 18.4916C16.2166 18.4916 16.2283 17.3833 18.4566 17.3833C20.6849 17.3833 20.6966 18.4916 22.9366 18.4916C25.1766 18.4916 25.1766 17.3833 27.4166 17.3833" stroke="#020202" stroke-width="1.5" stroke-miterlimit="10"/>
<path d="M0.583252 24.0918C2.82325 24.0918 2.82325 25.2585 5.05159 25.2585C7.27992 25.2585 7.29158 24.0918 9.51992 24.0918C11.7483 24.0918 11.7599 25.2585 13.9883 25.2585C16.2166 25.2585 16.2283 24.0918 18.4566 24.0918C20.6849 24.0918 20.6966 25.2585 22.9366 25.2585C25.1766 25.2585 25.1766 24.0918 27.4166 24.0918" stroke="#020202" stroke-width="1.5" stroke-miterlimit="10"/>
</svg>
