<svg width="28" height="28" viewBox="0 0 28 28" fill="none" xmlns="http://www.w3.org/2000/svg">
<path fill-rule="evenodd" clip-rule="evenodd" d="M25.5652 25.565H4.26087C3.61512 25.565 2.99583 25.3085 2.53922 24.8519C2.08261 24.3953 1.82609 23.776 1.82609 23.1302V11.4786C1.30439 11.3451 0.841876 11.0419 0.511307 10.6168C0.180739 10.1917 0.000871384 9.66873 0 9.13022V7.30414C0.0013578 7.21247 0.0236344 7.12232 0.0651304 7.04057C0.0651304 7.03509 0.0724348 7.03144 0.0754782 7.02657C0.115814 6.95053 0.172079 6.88409 0.240435 6.83179L4.39783 2.67805C4.45236 2.60384 4.52331 2.54324 4.60515 2.501C4.68699 2.45877 4.77748 2.43603 4.86957 2.43457H25.5652C26.211 2.43457 26.8303 2.69109 27.2869 3.1477C27.7435 3.60431 28 4.22361 28 4.86935V23.1302C28 23.776 27.7435 24.3953 27.2869 24.8519C26.8303 25.3085 26.211 25.565 25.5652 25.565ZM8.52174 24.3476V18.8694H6.08696V24.3476H8.52174ZM1.21739 9.13022C1.21739 9.45309 1.34565 9.76274 1.57396 9.99105C1.80226 10.2194 2.11191 10.3476 2.43478 10.3476C2.75765 10.3476 3.0673 10.2194 3.29561 9.99105C3.52391 9.76274 3.65217 9.45309 3.65217 9.13022V7.91283H1.21739V9.13022ZM5.10148 3.65196L2.058 6.69544H4.02896L7.07243 3.65196H5.10148ZM4.86957 9.13022C4.86957 9.45309 4.99783 9.76274 5.22613 9.99105C5.45444 10.2194 5.76408 10.3476 6.08696 10.3476C6.40983 10.3476 6.71948 10.2194 6.94778 9.99105C7.17609 9.76274 7.30435 9.45309 7.30435 9.13022V7.91283H4.86957V9.13022ZM8.75365 3.65196L5.71017 6.69544H7.68113L10.7246 3.65196H8.75365ZM8.52174 9.13022C8.52174 9.45309 8.65 9.76274 8.8783 9.99105C9.10661 10.2194 9.41626 10.3476 9.73913 10.3476C10.062 10.3476 10.3717 10.2194 10.6 9.99105C10.8283 9.76274 10.9565 9.45309 10.9565 9.13022V7.91283H8.52174V9.13022ZM12.4058 3.65196L9.36235 6.69544H11.3333L14.3768 3.65196H12.4058ZM12.1739 9.13022C12.1739 9.45309 12.3022 9.76274 12.5305 9.99105C12.7588 10.2194 13.0684 10.3476 13.3913 10.3476C13.7142 10.3476 14.0238 10.2194 14.2521 9.99105C14.4804 9.76274 14.6087 9.45309 14.6087 9.13022V7.91283H12.1739V9.13022ZM16.058 3.65196L13.0145 6.69544H14.9855L18.029 3.65196H16.058ZM18.8696 4.49257L15.8261 7.53605V9.13022C15.828 9.62579 15.6781 10.11 15.3965 10.5178C15.1149 10.9256 14.7151 11.2374 14.251 11.4112C13.7869 11.5849 13.2807 11.6124 12.8005 11.4898C12.3204 11.3673 11.8893 11.1006 11.5652 10.7256C11.3393 10.9889 11.0592 11.2002 10.744 11.345C10.4288 11.4899 10.086 11.5649 9.73913 11.5649C9.39224 11.5649 9.04945 11.4899 8.73426 11.345C8.41907 11.2002 8.13893 10.9889 7.91304 10.7256C7.68715 10.9889 7.40701 11.2002 7.09182 11.345C6.77663 11.4899 6.43385 11.5649 6.08696 11.5649C5.74007 11.5649 5.39728 11.4899 5.08209 11.345C4.7669 11.2002 4.48676 10.9889 4.26087 10.7256C3.93968 11.0932 3.5156 11.3559 3.04348 11.4798V23.1302C3.04348 23.4531 3.17174 23.7627 3.40004 23.991C3.62835 24.2194 3.938 24.3476 4.26087 24.3476H4.86957V18.2607C4.86957 18.0992 4.9337 17.9444 5.04785 17.8302C5.162 17.7161 5.31682 17.652 5.47826 17.652H9.13043C9.29187 17.652 9.4467 17.7161 9.56085 17.8302C9.675 17.9444 9.73913 18.0992 9.73913 18.2607V24.3476H17.6522C17.975 24.3476 18.2847 24.2194 18.513 23.991C18.7413 23.7627 18.8696 23.4531 18.8696 23.1302V4.49257ZM26.7826 4.86935C26.7826 4.54648 26.6543 4.23683 26.426 4.00853C26.1977 3.78022 25.8881 3.65196 25.5652 3.65196H20.087V23.1302C20.0847 23.5589 19.9681 23.9791 19.7491 24.3476H25.5652C25.8881 24.3476 26.1977 24.2194 26.426 23.991C26.6543 23.7627 26.7826 23.4531 26.7826 23.1302V4.86935ZM16.4348 18.8694H11.5652C11.4038 18.8694 11.249 18.8052 11.1348 18.6911C11.0207 18.5769 10.9565 18.4221 10.9565 18.2607V13.9998C10.9565 13.8384 11.0207 13.6835 11.1348 13.5694C11.249 13.4552 11.4038 13.3911 11.5652 13.3911H16.4348C16.5962 13.3911 16.751 13.4552 16.8652 13.5694C16.9793 13.6835 17.0435 13.8384 17.0435 13.9998V18.2607C17.0435 18.4221 16.9793 18.5769 16.8652 18.6911C16.751 18.8052 16.5962 18.8694 16.4348 18.8694ZM15.8261 14.6085H12.1739V17.652H15.8261V14.6085Z" fill="black"/>
</svg>
