<svg width="11" height="13" viewBox="0 0 11 13" fill="none" xmlns="http://www.w3.org/2000/svg">
<g clip-path="url(#clip0_184_2055)">
<path d="M10.4088 0.0162702C10.2094 0.0325202 10.0255 0.183848 9.9619 0.430645V0.43877C9.96019 0.444864 9.95847 0.450958 9.95503 0.45502L7.50753 7.97064C7.06409 8.1951 6.44448 8.57393 5.90565 9.10814C5.33159 9.6769 4.84003 10.4295 4.84003 11.3588C4.84003 11.7569 4.96464 12.1835 5.25253 12.4963C5.54042 12.8091 5.97956 13 6.5794 13H10.78C10.89 12.996 10.9803 12.8974 10.9923 12.7685C11.0043 12.6395 10.9347 12.5206 10.8282 12.4881C10.8282 12.4881 10.0444 12.2738 9.40503 11.6838C9.08534 11.3892 8.8069 11.0084 8.6694 10.5219C8.5319 10.0354 8.52589 9.43416 8.78628 8.65314C8.78628 8.64807 8.78628 8.64197 8.78628 8.6369L10.9588 0.853145L10.9657 0.836895H10.9588C11.0636 0.522052 10.9201 0.175723 10.6425 0.0650202L10.6494 0.0487702C10.6425 0.0457232 10.6357 0.0518171 10.6288 0.0487702C10.6219 0.046739 10.6219 0.0345515 10.615 0.0325202L10.6082 0.0487702C10.542 0.0233795 10.4749 0.011192 10.4088 0.0162702ZM10.4707 0.528145C10.4818 0.532208 10.493 0.534239 10.505 0.53627C10.5471 0.548458 10.5643 0.619552 10.5532 0.65002C10.5506 0.658145 10.548 0.66627 10.5463 0.674395L8.44253 8.22252L7.96128 8.01127L10.3675 0.609395C10.3701 0.60127 10.3727 0.593145 10.3744 0.58502C10.3847 0.535255 10.4449 0.514942 10.4707 0.528145ZM3.54065 1.0644C2.85831 1.0644 2.24386 1.48486 1.87003 2.16127C1.73768 2.16127 1.65003 2.1826 1.54003 2.2344L1.8494 2.64877C1.91558 2.62236 1.95511 2.62643 2.02128 2.60002H2.13128L2.1794 2.4944C2.44323 1.9226 2.97003 1.56002 3.52003 1.56002C4.22386 1.56002 4.84261 2.13486 5.01878 2.94127L5.06003 3.1444H5.28003C5.69768 3.1444 6.0294 3.4826 6.1394 3.9244H6.60003C6.49003 3.2226 6.00448 2.67619 5.41065 2.6244C5.12448 1.68799 4.39831 1.0644 3.54065 1.0644ZM0.419404 1.5519C0.40995 1.55393 0.400497 1.55697 0.391904 1.56002C0.316279 1.5783 0.253544 1.6433 0.228622 1.72963C0.202841 1.81596 0.21831 1.91244 0.268154 1.98252L0.866279 2.84377C0.655732 3.14135 0.50706 3.49885 0.460654 3.90002H0.900654C0.939325 3.65424 1.02354 3.42674 1.14128 3.23377L1.78753 4.16002H0.220029C0.153857 4.16002 0.0851067 4.18947 0.0412786 4.24127C-0.00254957 4.31947 2.85668e-05 4.39057 2.85668e-05 4.46877L1.10003 12.7888C1.12237 12.8924 1.21003 13 1.32003 13H5.50003C5.25768 12.87 5.08237 12.6882 4.95003 12.48H1.5194L0.481279 4.68002H2.14503L3.10753 6.06127C3.08862 6.11611 3.08003 6.17502 3.08003 6.24002C3.08003 6.52643 3.27768 6.76002 3.52003 6.76002C3.76237 6.76002 3.96003 6.52643 3.96003 6.24002C3.96003 5.95361 3.76237 5.72002 3.52003 5.72002C3.49683 5.72002 3.47362 5.72307 3.45128 5.72815L0.611904 1.65752C0.607607 1.65143 0.60331 1.64635 0.598154 1.64127C0.593857 1.63315 0.58956 1.62502 0.584404 1.6169C0.571513 1.60674 0.557763 1.59861 0.543154 1.59252C0.538857 1.58643 0.53456 1.58135 0.529404 1.57627C0.516513 1.56916 0.501904 1.56408 0.488154 1.56002C0.46581 1.55291 0.442607 1.54986 0.419404 1.5519ZM2.88065 4.16002L3.23128 4.68002H6.55878L6.0294 8.66127C6.20558 8.50486 6.35511 8.37486 6.53128 8.27127L7.04003 4.46877C7.04003 4.39057 7.04261 4.31744 6.99878 4.26565C6.95495 4.18744 6.8862 4.16002 6.82003 4.16002H2.88065ZM7.68628 8.4419L8.29815 8.71002C8.08675 9.47174 8.09534 10.137 8.25003 10.6844C8.4219 11.2928 8.76222 11.7508 9.13003 12.09C9.3337 12.2779 9.5262 12.3571 9.72815 12.48H8.65565C8.10995 12.3967 7.86503 12.156 7.74128 11.895C7.61753 11.634 7.61753 11.3151 7.67253 11.0663C7.69315 10.984 7.67854 10.8956 7.633 10.8296C7.58745 10.7626 7.51784 10.7271 7.44565 10.7331C7.34854 10.7413 7.26776 10.8235 7.24628 10.9363C7.16893 11.2856 7.16034 11.7406 7.35628 12.155C7.41128 12.2728 7.4869 12.3795 7.57628 12.48H7.43878C6.99276 12.48 6.72722 12.3592 6.5794 12.2119C6.43159 12.0646 6.36886 11.8788 6.36628 11.635C6.36198 11.1465 6.65847 10.4803 6.9369 10.14C7.00479 10.0638 7.0237 9.94502 6.98503 9.84447C6.94636 9.74393 6.85784 9.68299 6.76503 9.69314C6.71003 9.69822 6.65847 9.72666 6.62065 9.77439C6.26058 10.2142 5.9194 10.9353 5.92628 11.6431C5.92886 11.9204 5.99933 12.2068 6.15315 12.4394C5.873 12.3795 5.6805 12.2576 5.54815 12.1144C5.35823 11.9072 5.28003 11.6371 5.28003 11.3588C5.28003 10.6499 5.66675 10.0232 6.18753 9.50627C6.67995 9.01775 7.27378 8.6501 7.68628 8.4419Z" fill="black"/>
</g>
<defs>
<clipPath id="clip0_184_2055">
<rect width="11" height="13" fill="white"/>
</clipPath>
</defs>
</svg>
