<svg width="12" height="12" viewBox="0 0 12 12" fill="none" xmlns="http://www.w3.org/2000/svg">
<path d="M5.99942 10.4998V5.49982M8.36942 6.08482C8.45377 6.29646 8.49786 6.52199 8.49942 6.74982C8.49942 7.21395 8.31504 7.65907 7.98686 7.98726C7.65867 8.31544 7.21355 8.49982 6.74942 8.49982C6.48943 8.49875 6.23304 8.43893 5.99942 8.32482C5.7658 8.43893 5.50941 8.49875 5.24942 8.49982C4.78529 8.49982 4.34017 8.31544 4.01198 7.98726C3.68379 7.65907 3.49942 7.21395 3.49942 6.74982C3.50098 6.52199 3.54507 6.29646 3.62942 6.08482C3.40139 5.89576 3.22541 5.65162 3.11813 5.37552C3.01085 5.09942 2.97583 4.80051 3.01639 4.50709C3.05695 4.21367 3.17174 3.93547 3.34989 3.69882C3.52804 3.46218 3.76366 3.27493 4.03442 3.15482C4.12118 2.69717 4.36496 2.28416 4.72369 1.98704C5.08243 1.68993 5.53362 1.52734 5.99942 1.52734C6.46522 1.52734 6.91641 1.68993 7.27514 1.98704C7.63388 2.28416 7.87766 2.69717 7.96442 3.15482C8.23518 3.27493 8.47079 3.46218 8.64895 3.69882C8.8271 3.93547 8.94189 4.21367 8.98245 4.50709C9.02301 4.80051 8.98799 5.09942 8.88071 5.37552C8.77343 5.65162 8.59744 5.89576 8.36942 6.08482Z" stroke="black" stroke-width="0.5" stroke-linecap="round" stroke-linejoin="round"/>
</svg>
