<svg width="14" height="14" viewBox="0 0 14 14" fill="none" xmlns="http://www.w3.org/2000/svg">
<g clip-path="url(#clip0_195_2394)">
<path d="M10.8103 9.59634C10.7776 9.55352 10.7441 9.50947 10.7176 9.46484C10.6982 9.43214 10.6647 9.4126 10.6281 9.4126C10.5914 9.4126 10.5579 9.43214 10.5385 9.46484C10.5121 9.50947 10.4785 9.55352 10.4461 9.59611C10.3632 9.70486 10.2695 9.82788 10.2695 9.99466C10.2695 10.2027 10.4303 10.372 10.6281 10.372C10.8258 10.372 10.9866 10.2027 10.9866 9.99466C10.9866 9.82782 10.8929 9.70485 10.8103 9.59634ZM10.6281 10.1906C10.5254 10.1906 10.4418 10.1027 10.4418 9.99465C10.4418 9.89158 10.506 9.80728 10.5803 9.70977C10.5962 9.68894 10.6123 9.66783 10.6281 9.64601C10.6438 9.66777 10.66 9.68894 10.6758 9.70977C10.7501 9.80735 10.8143 9.89158 10.8143 9.99465C10.8143 10.1027 10.7307 10.1906 10.6281 10.1906Z" fill="black"/>
<path d="M10.3318 10.5558C10.2991 10.513 10.2656 10.4689 10.2391 10.4243C10.2197 10.3916 10.1862 10.3721 10.1495 10.3721C10.1129 10.3721 10.0794 10.3916 10.06 10.4243C10.0335 10.4689 9.99997 10.513 9.96756 10.5556C9.88473 10.6643 9.79102 10.7873 9.79102 10.9541C9.79102 11.1622 9.95183 11.3314 10.1495 11.3314C10.3473 11.3314 10.5081 11.1622 10.5081 10.9541C10.5081 10.7873 10.4144 10.6643 10.3318 10.5558ZM10.1495 11.1501C10.0469 11.1501 9.96333 11.0622 9.96333 10.9541C9.96333 10.851 10.0275 10.7668 10.1018 10.6692C10.1176 10.6484 10.1338 10.6273 10.1495 10.6055C10.1653 10.6272 10.1815 10.6484 10.1973 10.6692C10.2716 10.7668 10.3358 10.8511 10.3358 10.9541C10.3358 11.0622 10.2522 11.1501 10.1495 11.1501Z" fill="black"/>
<path d="M11.2888 10.5558C11.2562 10.513 11.2226 10.4689 11.1961 10.4243C11.1767 10.3916 11.1432 10.3721 11.1066 10.3721C11.0699 10.3721 11.0364 10.3916 11.017 10.4243C10.9906 10.4689 10.957 10.513 10.9246 10.5556C10.8418 10.6643 10.748 10.7873 10.748 10.9541C10.748 11.1622 10.9089 11.3314 11.1066 11.3314C11.3043 11.3314 11.4651 11.1622 11.4651 10.9541C11.4651 10.7873 11.3714 10.6643 11.2888 10.5558ZM11.1066 11.1501C11.0039 11.1501 10.9204 11.0622 10.9204 10.9541C10.9204 10.851 10.9845 10.7668 11.0588 10.6692C11.0747 10.6484 11.0908 10.6273 11.1066 10.6055C11.1224 10.6272 11.1385 10.6484 11.1543 10.6692C11.2286 10.7668 11.2928 10.8511 11.2928 10.9541C11.2928 11.0622 11.2092 11.1501 11.1066 11.1501Z" fill="black"/>
<path d="M7.87683 4.32772H6.53831V2.64881H7.33541C7.57077 2.85521 7.87484 2.98459 8.21145 2.98459C8.94941 2.98459 9.54997 2.38197 9.54997 1.64147C9.54997 0.900963 8.94941 0.29834 8.21145 0.29834C7.87505 0.29834 7.57098 0.427721 7.33541 0.634121H5.07175C4.83639 0.427721 4.53232 0.29834 4.19591 0.29834C3.45795 0.29834 2.8574 0.900963 2.8574 1.64147C2.8574 2.38197 3.45795 2.98459 4.19591 2.98459C4.53232 2.98459 4.83639 2.85521 5.07196 2.64881H5.86905V4.32772H2.52277V3.99194C2.52277 3.80636 2.37308 3.65615 2.18814 3.65615C2.00321 3.65615 1.85352 3.80636 1.85352 3.99194V7.34975C1.85352 7.53532 2.00321 7.68553 2.18814 7.68553C2.37308 7.68553 2.52277 7.53532 2.52277 7.34975V7.01397H7.87683C8.61479 7.01397 9.21534 7.61659 9.21534 8.3571V8.69288C9.21534 9.06381 9.51494 9.36444 9.88459 9.36444H11.2231C11.5928 9.36444 11.8924 9.06381 11.8924 8.69288V8.3571C11.8924 6.13535 10.0909 4.32772 7.87683 4.32772ZM8.21145 0.969903C8.58111 0.969903 8.88071 1.27053 8.88071 1.64147C8.88071 2.0124 8.58111 2.31303 8.21145 2.31303C7.84179 2.31303 7.5422 2.0124 7.5422 1.64147C7.5422 1.27053 7.84179 0.969903 8.21145 0.969903ZM4.19591 2.31303C3.82625 2.31303 3.52666 2.0124 3.52666 1.64147C3.52666 1.27053 3.82625 0.969903 4.19591 0.969903C4.56557 0.969903 4.86517 1.27053 4.86517 1.64147C4.86517 2.0124 4.56557 2.31303 4.19591 2.31303ZM5.53443 1.97725V1.30568H6.87294V1.97725H5.53443ZM11.2231 8.69288H9.88459V8.3571C9.88459 7.2461 8.98377 6.34241 7.87683 6.34241H2.52277V4.99928H7.87683C9.72196 4.99928 11.2231 6.5056 11.2231 8.3571V8.69288Z" fill="black"/>
</g>
<defs>
<clipPath id="clip0_195_2394">
<rect width="13.3851" height="13.4313" fill="white" transform="translate(0.230469 0.29834)"/>
</clipPath>
</defs>
</svg>
